<?xml version="1.0" encoding="UTF-8" standalone="no"?>
<!DOCTYPE svg PUBLIC "-//W3C//DTD SVG 1.1//EN"
 "http://www.w3.org/Graphics/SVG/1.1/DTD/svg11.dtd">
<!-- Generated by graphviz version 2.40.1 (20161225.0304)
 -->
<!-- Title: dependencies Pages: 1 -->
<svg width="1082pt" height="211pt"
 viewBox="0.00 0.00 1082.00 211.00" xmlns="http://www.w3.org/2000/svg" xmlns:xlink="http://www.w3.org/1999/xlink">
<g id="graph0" class="graph" transform="scale(1 1) rotate(0) translate(4 207)">
<title>dependencies</title>
<polygon fill="#ffffff" stroke="transparent" points="-4,4 -4,-207 1078,-207 1078,4 -4,4"/>
<text text-anchor="start" x="516.0091" y="-42.4" font-family="sans-serif" font-weight="bold" font-size="14.00" fill="#000000">Legend</text>
<polygon fill="#ffffb3" stroke="transparent" points="303,-10 303,-30 323,-30 323,-10 303,-10"/>
<text text-anchor="start" x="326.629" y="-15.4" font-family="sans-serif" font-size="14.00" fill="#000000"> &#160;Declarations</text>
<polygon fill="#8dd3c7" stroke="transparent" points="416,-10 416,-30 436,-30 436,-10 416,-10"/>
<text text-anchor="start" x="439.7251" y="-15.4" font-family="sans-serif" font-size="14.00" fill="#000000"> &#160;Module</text>
<polygon fill="#80b1d3" stroke="transparent" points="502,-10 502,-30 522,-30 522,-10 502,-10"/>
<text text-anchor="start" x="525.7812" y="-15.4" font-family="sans-serif" font-size="14.00" fill="#000000"> &#160;Bootstrap</text>
<polygon fill="#fdb462" stroke="transparent" points="599,-10 599,-30 619,-30 619,-10 599,-10"/>
<text text-anchor="start" x="622.6732" y="-15.4" font-family="sans-serif" font-size="14.00" fill="#000000"> &#160;Providers</text>
<polygon fill="#fb8072" stroke="transparent" points="695,-10 695,-30 715,-30 715,-10 695,-10"/>
<text text-anchor="start" x="718.7258" y="-15.4" font-family="sans-serif" font-size="14.00" fill="#000000"> &#160;Exports</text>
<g id="clust1" class="cluster">
<title>cluster_HomeModule</title>
<polygon fill="none" stroke="#000000" stroke-dasharray="1,5" points="8,-70 8,-195 1066,-195 1066,-70 8,-70"/>
</g>
<g id="clust2" class="cluster">
<title>cluster_HomeModule_declarations</title>
<polygon fill="none" stroke="#000000" points="926,-78 926,-130 1058,-130 1058,-78 926,-78"/>
</g>
<g id="clust4" class="cluster">
<title>cluster_HomeModule_imports</title>
<polygon fill="none" stroke="#000000" points="16,-78 16,-130 918,-130 918,-78 16,-78"/>
</g>
<!-- HomeComponent -->
<g id="node1" class="node">
<title>HomeComponent</title>
<polygon fill="#ffffb3" stroke="#000000" points="1049.5451,-122 934.4549,-122 934.4549,-86 1049.5451,-86 1049.5451,-122"/>
<text text-anchor="middle" x="992" y="-99.8" font-family="Times,serif" font-size="14.00" fill="#000000">HomeComponent</text>
</g>
<!-- HomeModule -->
<g id="node2" class="node">
<title>HomeModule</title>
<polygon fill="#8dd3c7" stroke="#000000" points="674.7619,-187 671.7619,-191 650.7619,-191 647.7619,-187 581.2381,-187 581.2381,-151 674.7619,-151 674.7619,-187"/>
<text text-anchor="middle" x="628" y="-164.8" font-family="Times,serif" font-size="14.00" fill="#000000">HomeModule</text>
</g>
<!-- HomeComponent&#45;&gt;HomeModule -->
<g id="edge1" class="edge">
<title>HomeComponent&#45;&gt;HomeModule</title>
<path fill="none" stroke="#000000" d="M992,-122.2843C992,-143.3211 992,-175 992,-175 992,-175 684.8415,-175 684.8415,-175"/>
<polygon fill="#000000" stroke="#000000" points="684.8415,-171.5001 674.8415,-175 684.8414,-178.5001 684.8415,-171.5001"/>
</g>
<!-- SharedModule -->
<g id="node3" class="node">
<title>SharedModule</title>
<polygon fill="#8dd3c7" stroke="#000000" points="910.4231,-122 907.4231,-126 886.4231,-126 883.4231,-122 811.5769,-122 811.5769,-86 910.4231,-86 910.4231,-122"/>
<text text-anchor="middle" x="861" y="-99.8" font-family="Times,serif" font-size="14.00" fill="#000000">SharedModule</text>
</g>
<!-- SharedModule&#45;&gt;HomeModule -->
<g id="edge2" class="edge">
<title>SharedModule&#45;&gt;HomeModule</title>
<path fill="none" stroke="#000000" d="M861,-122.0225C861,-139.3734 861,-163 861,-163 861,-163 684.8707,-163 684.8707,-163"/>
<polygon fill="#000000" stroke="#000000" points="684.8708,-159.5001 674.8707,-163 684.8707,-166.5001 684.8708,-159.5001"/>
</g>
<!-- NativeScriptFormsModule -->
<g id="node4" class="node">
<title>NativeScriptFormsModule</title>
<polygon fill="#8dd3c7" stroke="#000000" points="794.0842,-122 791.0842,-126 770.0842,-126 767.0842,-122 627.9158,-122 627.9158,-86 794.0842,-86 794.0842,-122"/>
<text text-anchor="middle" x="711" y="-99.8" font-family="Times,serif" font-size="14.00" fill="#000000">NativeScriptFormsModule</text>
</g>
<!-- NativeScriptFormsModule&#45;&gt;HomeModule -->
<g id="edge3" class="edge">
<title>NativeScriptFormsModule&#45;&gt;HomeModule</title>
<path fill="none" stroke="#000000" d="M651.4194,-122.1061C651.4194,-122.1061 651.4194,-140.991 651.4194,-140.991"/>
<polygon fill="#000000" stroke="#000000" points="647.9194,-140.9909 651.4194,-150.991 654.9194,-140.991 647.9194,-140.9909"/>
</g>
<!-- NativeScriptModule -->
<g id="node5" class="node">
<title>NativeScriptModule</title>
<polygon fill="#8dd3c7" stroke="#000000" points="610.3062,-122 607.3062,-126 586.3062,-126 583.3062,-122 479.6938,-122 479.6938,-86 610.3062,-86 610.3062,-122"/>
<text text-anchor="middle" x="545" y="-99.8" font-family="Times,serif" font-size="14.00" fill="#000000">NativeScriptModule</text>
</g>
<!-- NativeScriptModule&#45;&gt;HomeModule -->
<g id="edge4" class="edge">
<title>NativeScriptModule&#45;&gt;HomeModule</title>
<path fill="none" stroke="#000000" d="M595.6361,-122.1061C595.6361,-122.1061 595.6361,-140.991 595.6361,-140.991"/>
<polygon fill="#000000" stroke="#000000" points="592.1361,-140.9909 595.6361,-150.991 599.1361,-140.991 592.1361,-140.9909"/>
</g>
<!-- NativeScriptRouterModule -->
<g id="node6" class="node">
<title>NativeScriptRouterModule</title>
<polygon fill="#8dd3c7" stroke="#000000" points="462.4087,-122 459.4087,-126 438.4087,-126 435.4087,-122 293.5913,-122 293.5913,-86 462.4087,-86 462.4087,-122"/>
<text text-anchor="middle" x="378" y="-99.8" font-family="Times,serif" font-size="14.00" fill="#000000">NativeScriptRouterModule</text>
</g>
<!-- NativeScriptRouterModule&#45;&gt;HomeModule -->
<g id="edge5" class="edge">
<title>NativeScriptRouterModule&#45;&gt;HomeModule</title>
<path fill="none" stroke="#000000" d="M378,-122.0225C378,-139.3734 378,-163 378,-163 378,-163 570.9769,-163 570.9769,-163"/>
<polygon fill="#000000" stroke="#000000" points="570.9769,-166.5001 580.9769,-163 570.9769,-159.5001 570.9769,-166.5001"/>
</g>
<!-- NativeScriptRouterModule.forChild(args) -->
<g id="node7" class="node">
<title>NativeScriptRouterModule.forChild(args)</title>
<polygon fill="#8dd3c7" stroke="#000000" points="275.9882,-122 272.9882,-126 251.9882,-126 248.9882,-122 24.0118,-122 24.0118,-86 275.9882,-86 275.9882,-122"/>
<text text-anchor="middle" x="150" y="-99.8" font-family="Times,serif" font-size="14.00" fill="#000000">NativeScriptRouterModule.forChild(args)</text>
</g>
<!-- NativeScriptRouterModule.forChild(args)&#45;&gt;HomeModule -->
<g id="edge6" class="edge">
<title>NativeScriptRouterModule.forChild(args)&#45;&gt;HomeModule</title>
<path fill="none" stroke="#000000" d="M150,-122.2843C150,-143.3211 150,-175 150,-175 150,-175 570.8593,-175 570.8593,-175"/>
<polygon fill="#000000" stroke="#000000" points="570.8594,-178.5001 580.8593,-175 570.8593,-171.5001 570.8594,-178.5001"/>
</g>
</g>
</svg>
