<?xml version="1.0" encoding="UTF-8" standalone="no"?>
<!DOCTYPE svg PUBLIC "-//W3C//DTD SVG 1.1//EN"
 "http://www.w3.org/Graphics/SVG/1.1/DTD/svg11.dtd">
<!-- Generated by graphviz version 2.40.1 (20161225.0304)
 -->
<!-- Title: dependencies Pages: 1 -->
<svg width="2584pt" height="211pt"
 viewBox="0.00 0.00 2584.00 211.00" xmlns="http://www.w3.org/2000/svg" xmlns:xlink="http://www.w3.org/1999/xlink">
<g id="graph0" class="graph" transform="scale(1 1) rotate(0) translate(4 207)">
<title>dependencies</title>
<polygon fill="#ffffff" stroke="transparent" points="-4,4 -4,-207 2580,-207 2580,4 -4,4"/>
<text text-anchor="start" x="1267.0091" y="-42.4" font-family="sans-serif" font-weight="bold" font-size="14.00" fill="#000000">Legend</text>
<polygon fill="#ffffb3" stroke="transparent" points="1054,-10 1054,-30 1074,-30 1074,-10 1054,-10"/>
<text text-anchor="start" x="1077.629" y="-15.4" font-family="sans-serif" font-size="14.00" fill="#000000"> &#160;Declarations</text>
<polygon fill="#8dd3c7" stroke="transparent" points="1167,-10 1167,-30 1187,-30 1187,-10 1167,-10"/>
<text text-anchor="start" x="1190.7251" y="-15.4" font-family="sans-serif" font-size="14.00" fill="#000000"> &#160;Module</text>
<polygon fill="#80b1d3" stroke="transparent" points="1253,-10 1253,-30 1273,-30 1273,-10 1253,-10"/>
<text text-anchor="start" x="1276.7812" y="-15.4" font-family="sans-serif" font-size="14.00" fill="#000000"> &#160;Bootstrap</text>
<polygon fill="#fdb462" stroke="transparent" points="1350,-10 1350,-30 1370,-30 1370,-10 1350,-10"/>
<text text-anchor="start" x="1373.6732" y="-15.4" font-family="sans-serif" font-size="14.00" fill="#000000"> &#160;Providers</text>
<polygon fill="#fb8072" stroke="transparent" points="1446,-10 1446,-30 1466,-30 1466,-10 1446,-10"/>
<text text-anchor="start" x="1469.7258" y="-15.4" font-family="sans-serif" font-size="14.00" fill="#000000"> &#160;Exports</text>
<g id="clust1" class="cluster">
<title>cluster_MemberModule</title>
<polygon fill="none" stroke="#000000" stroke-dasharray="1,5" points="8,-70 8,-195 2568,-195 2568,-70 8,-70"/>
</g>
<g id="clust2" class="cluster">
<title>cluster_MemberModule_declarations</title>
<polygon fill="none" stroke="#000000" points="1620,-78 1620,-130 2560,-130 2560,-78 1620,-78"/>
</g>
<g id="clust8" class="cluster">
<title>cluster_MemberModule_imports</title>
<polygon fill="none" stroke="#000000" points="186,-78 186,-130 1612,-130 1612,-78 186,-78"/>
</g>
<g id="clust11" class="cluster">
<title>cluster_MemberModule_providers</title>
<polygon fill="none" stroke="#000000" points="16,-78 16,-130 178,-130 178,-78 16,-78"/>
</g>
<!-- MemberOverviewComponent -->
<g id="node1" class="node">
<title>MemberOverviewComponent</title>
<polygon fill="#ffffb3" stroke="#000000" points="2551.951,-122 2368.049,-122 2368.049,-86 2551.951,-86 2551.951,-122"/>
<text text-anchor="middle" x="2460" y="-99.8" font-family="Times,serif" font-size="14.00" fill="#000000">MemberOverviewComponent</text>
</g>
<!-- MemberModule -->
<g id="node6" class="node">
<title>MemberModule</title>
<polygon fill="#8dd3c7" stroke="#000000" points="1405.4748,-187 1402.4748,-191 1381.4748,-191 1378.4748,-187 1298.5252,-187 1298.5252,-151 1405.4748,-151 1405.4748,-187"/>
<text text-anchor="middle" x="1352" y="-164.8" font-family="Times,serif" font-size="14.00" fill="#000000">MemberModule</text>
</g>
<!-- MemberOverviewComponent&#45;&gt;MemberModule -->
<g id="edge1" class="edge">
<title>MemberOverviewComponent&#45;&gt;MemberModule</title>
<path fill="none" stroke="#000000" d="M2460,-122.0908C2460,-145.1328 2460,-182 2460,-182 2460,-182 1415.8156,-182 1415.8156,-182"/>
<polygon fill="#000000" stroke="#000000" points="1415.8156,-178.5001 1405.8156,-182 1415.8156,-185.5001 1415.8156,-178.5001"/>
</g>
<!-- MemberRegisterComponent -->
<g id="node2" class="node">
<title>MemberRegisterComponent</title>
<polygon fill="#ffffb3" stroke="#000000" points="2349.9101,-122 2174.0899,-122 2174.0899,-86 2349.9101,-86 2349.9101,-122"/>
<text text-anchor="middle" x="2262" y="-99.8" font-family="Times,serif" font-size="14.00" fill="#000000">MemberRegisterComponent</text>
</g>
<!-- MemberRegisterComponent&#45;&gt;MemberModule -->
<g id="edge2" class="edge">
<title>MemberRegisterComponent&#45;&gt;MemberModule</title>
<path fill="none" stroke="#000000" d="M2262,-122.0449C2262,-143.6623 2262,-177 2262,-177 2262,-177 1415.5273,-177 1415.5273,-177"/>
<polygon fill="#000000" stroke="#000000" points="1415.5273,-173.5001 1405.5273,-177 1415.5272,-180.5001 1415.5273,-173.5001"/>
</g>
<!-- MemberRegisterParentComponent -->
<g id="node3" class="node">
<title>MemberRegisterParentComponent</title>
<polygon fill="#ffffb3" stroke="#000000" points="2156.6727,-122 1945.3273,-122 1945.3273,-86 2156.6727,-86 2156.6727,-122"/>
<text text-anchor="middle" x="2051" y="-99.8" font-family="Times,serif" font-size="14.00" fill="#000000">MemberRegisterParentComponent</text>
</g>
<!-- MemberRegisterParentComponent&#45;&gt;MemberModule -->
<g id="edge3" class="edge">
<title>MemberRegisterParentComponent&#45;&gt;MemberModule</title>
<path fill="none" stroke="#000000" d="M2051,-122.2228C2051,-142.3652 2051,-172 2051,-172 2051,-172 1415.6887,-172 1415.6887,-172"/>
<polygon fill="#000000" stroke="#000000" points="1415.6887,-168.5001 1405.6887,-172 1415.6887,-175.5001 1415.6887,-168.5001"/>
</g>
<!-- MemberDetailComponent -->
<g id="node4" class="node">
<title>MemberDetailComponent</title>
<polygon fill="#ffffb3" stroke="#000000" points="1927.465,-122 1764.535,-122 1764.535,-86 1927.465,-86 1927.465,-122"/>
<text text-anchor="middle" x="1846" y="-99.8" font-family="Times,serif" font-size="14.00" fill="#000000">MemberDetailComponent</text>
</g>
<!-- MemberDetailComponent&#45;&gt;MemberModule -->
<g id="edge4" class="edge">
<title>MemberDetailComponent&#45;&gt;MemberModule</title>
<path fill="none" stroke="#000000" d="M1846,-122.2222C1846,-140.8285 1846,-167 1846,-167 1846,-167 1415.8071,-167 1415.8071,-167"/>
<polygon fill="#000000" stroke="#000000" points="1415.8071,-163.5001 1405.8071,-167 1415.807,-170.5001 1415.8071,-163.5001"/>
</g>
<!-- MemberFilterPipe -->
<g id="node5" class="node">
<title>MemberFilterPipe</title>
<polygon fill="#ffffb3" stroke="#000000" points="1746.1429,-122 1627.8571,-122 1627.8571,-86 1746.1429,-86 1746.1429,-122"/>
<text text-anchor="middle" x="1687" y="-99.8" font-family="Times,serif" font-size="14.00" fill="#000000">MemberFilterPipe</text>
</g>
<!-- MemberFilterPipe&#45;&gt;MemberModule -->
<g id="edge5" class="edge">
<title>MemberFilterPipe&#45;&gt;MemberModule</title>
<path fill="none" stroke="#000000" d="M1687,-122.0336C1687,-139.0597 1687,-162 1687,-162 1687,-162 1415.8235,-162 1415.8235,-162"/>
<polygon fill="#000000" stroke="#000000" points="1415.8236,-158.5001 1405.8235,-162 1415.8235,-165.5001 1415.8236,-158.5001"/>
</g>
<!-- CommonModule -->
<g id="node7" class="node">
<title>CommonModule</title>
<polygon fill="#8dd3c7" stroke="#000000" points="1603.6681,-122 1600.6681,-126 1579.6681,-126 1576.6681,-122 1492.3319,-122 1492.3319,-86 1603.6681,-86 1603.6681,-122"/>
<text text-anchor="middle" x="1548" y="-99.8" font-family="Times,serif" font-size="14.00" fill="#000000">CommonModule</text>
</g>
<!-- CommonModule&#45;&gt;MemberModule -->
<g id="edge6" class="edge">
<title>CommonModule&#45;&gt;MemberModule</title>
<path fill="none" stroke="#000000" d="M1548,-122.2396C1548,-137.5706 1548,-157 1548,-157 1548,-157 1415.5579,-157 1415.5579,-157"/>
<polygon fill="#000000" stroke="#000000" points="1415.5579,-153.5001 1405.5579,-157 1415.5578,-160.5001 1415.5579,-153.5001"/>
</g>
<!-- SharedModule -->
<g id="node8" class="node">
<title>SharedModule</title>
<polygon fill="#8dd3c7" stroke="#000000" points="1474.4231,-122 1471.4231,-126 1450.4231,-126 1447.4231,-122 1375.5769,-122 1375.5769,-86 1474.4231,-86 1474.4231,-122"/>
<text text-anchor="middle" x="1425" y="-99.8" font-family="Times,serif" font-size="14.00" fill="#000000">SharedModule</text>
</g>
<!-- SharedModule&#45;&gt;MemberModule -->
<g id="edge7" class="edge">
<title>SharedModule&#45;&gt;MemberModule</title>
<path fill="none" stroke="#000000" d="M1390.6382,-122.1061C1390.6382,-122.1061 1390.6382,-140.991 1390.6382,-140.991"/>
<polygon fill="#000000" stroke="#000000" points="1387.1382,-140.9909 1390.6382,-150.991 1394.1382,-140.991 1387.1382,-140.9909"/>
</g>
<!-- NativeScriptHttpModule -->
<g id="node9" class="node">
<title>NativeScriptHttpModule</title>
<polygon fill="#8dd3c7" stroke="#000000" points="1357.6937,-122 1354.6937,-126 1333.6937,-126 1330.6937,-122 1202.3063,-122 1202.3063,-86 1357.6937,-86 1357.6937,-122"/>
<text text-anchor="middle" x="1280" y="-99.8" font-family="Times,serif" font-size="14.00" fill="#000000">NativeScriptHttpModule</text>
</g>
<!-- NativeScriptHttpModule&#45;&gt;MemberModule -->
<g id="edge8" class="edge">
<title>NativeScriptHttpModule&#45;&gt;MemberModule</title>
<path fill="none" stroke="#000000" d="M1328.0547,-122.1061C1328.0547,-122.1061 1328.0547,-140.991 1328.0547,-140.991"/>
<polygon fill="#000000" stroke="#000000" points="1324.5548,-140.9909 1328.0547,-150.991 1331.5548,-140.991 1324.5548,-140.9909"/>
</g>
<!-- NativeScriptModule -->
<g id="node10" class="node">
<title>NativeScriptModule</title>
<polygon fill="#8dd3c7" stroke="#000000" points="1184.3062,-122 1181.3062,-126 1160.3062,-126 1157.3062,-122 1053.6938,-122 1053.6938,-86 1184.3062,-86 1184.3062,-122"/>
<text text-anchor="middle" x="1119" y="-99.8" font-family="Times,serif" font-size="14.00" fill="#000000">NativeScriptModule</text>
</g>
<!-- NativeScriptModule&#45;&gt;MemberModule -->
<g id="edge9" class="edge">
<title>NativeScriptModule&#45;&gt;MemberModule</title>
<path fill="none" stroke="#000000" d="M1119,-122.2396C1119,-137.5706 1119,-157 1119,-157 1119,-157 1288.2525,-157 1288.2525,-157"/>
<polygon fill="#000000" stroke="#000000" points="1288.2526,-160.5001 1298.2525,-157 1288.2525,-153.5001 1288.2526,-160.5001"/>
</g>
<!-- NativeScriptFormsModule -->
<g id="node11" class="node">
<title>NativeScriptFormsModule</title>
<polygon fill="#8dd3c7" stroke="#000000" points="1036.0842,-122 1033.0842,-126 1012.0842,-126 1009.0842,-122 869.9158,-122 869.9158,-86 1036.0842,-86 1036.0842,-122"/>
<text text-anchor="middle" x="953" y="-99.8" font-family="Times,serif" font-size="14.00" fill="#000000">NativeScriptFormsModule</text>
</g>
<!-- NativeScriptFormsModule&#45;&gt;MemberModule -->
<g id="edge10" class="edge">
<title>NativeScriptFormsModule&#45;&gt;MemberModule</title>
<path fill="none" stroke="#000000" d="M953,-122.0336C953,-139.0597 953,-162 953,-162 953,-162 1288.1891,-162 1288.1891,-162"/>
<polygon fill="#000000" stroke="#000000" points="1288.1891,-165.5001 1298.1891,-162 1288.189,-158.5001 1288.1891,-165.5001"/>
</g>
<!-- NativeScriptUIDataFormModule -->
<g id="node12" class="node">
<title>NativeScriptUIDataFormModule</title>
<polygon fill="#8dd3c7" stroke="#000000" points="851.8333,-122 848.8333,-126 827.8333,-126 824.8333,-122 650.1667,-122 650.1667,-86 851.8333,-86 851.8333,-122"/>
<text text-anchor="middle" x="751" y="-99.8" font-family="Times,serif" font-size="14.00" fill="#000000">NativeScriptUIDataFormModule</text>
</g>
<!-- NativeScriptUIDataFormModule&#45;&gt;MemberModule -->
<g id="edge11" class="edge">
<title>NativeScriptUIDataFormModule&#45;&gt;MemberModule</title>
<path fill="none" stroke="#000000" d="M751,-122.2222C751,-140.8285 751,-167 751,-167 751,-167 1288.4011,-167 1288.4011,-167"/>
<polygon fill="#000000" stroke="#000000" points="1288.4011,-170.5001 1298.4011,-167 1288.401,-163.5001 1288.4011,-170.5001"/>
</g>
<!-- NativeScriptRouterModule -->
<g id="node13" class="node">
<title>NativeScriptRouterModule</title>
<polygon fill="#8dd3c7" stroke="#000000" points="632.4087,-122 629.4087,-126 608.4087,-126 605.4087,-122 463.5913,-122 463.5913,-86 632.4087,-86 632.4087,-122"/>
<text text-anchor="middle" x="548" y="-99.8" font-family="Times,serif" font-size="14.00" fill="#000000">NativeScriptRouterModule</text>
</g>
<!-- NativeScriptRouterModule&#45;&gt;MemberModule -->
<g id="edge12" class="edge">
<title>NativeScriptRouterModule&#45;&gt;MemberModule</title>
<path fill="none" stroke="#000000" d="M548,-122.2228C548,-142.3652 548,-172 548,-172 548,-172 1288.3122,-172 1288.3122,-172"/>
<polygon fill="#000000" stroke="#000000" points="1288.3122,-175.5001 1298.3122,-172 1288.3121,-168.5001 1288.3122,-175.5001"/>
</g>
<!-- NativeScriptRouterModule.forChild(args) -->
<g id="node14" class="node">
<title>NativeScriptRouterModule.forChild(args)</title>
<polygon fill="#8dd3c7" stroke="#000000" points="445.9882,-122 442.9882,-126 421.9882,-126 418.9882,-122 194.0118,-122 194.0118,-86 445.9882,-86 445.9882,-122"/>
<text text-anchor="middle" x="320" y="-99.8" font-family="Times,serif" font-size="14.00" fill="#000000">NativeScriptRouterModule.forChild(args)</text>
</g>
<!-- NativeScriptRouterModule.forChild(args)&#45;&gt;MemberModule -->
<g id="edge13" class="edge">
<title>NativeScriptRouterModule.forChild(args)&#45;&gt;MemberModule</title>
<path fill="none" stroke="#000000" d="M320,-122.0449C320,-143.6623 320,-177 320,-177 320,-177 1288.3288,-177 1288.3288,-177"/>
<polygon fill="#000000" stroke="#000000" points="1288.3288,-180.5001 1298.3288,-177 1288.3288,-173.5001 1288.3288,-180.5001"/>
</g>
<!-- MemberService -->
<g id="node15" class="node">
<title>MemberService</title>
<ellipse fill="#fdb462" stroke="#000000" cx="97" cy="-104" rx="72.9102" ry="18"/>
<text text-anchor="middle" x="97" y="-99.8" font-family="Times,serif" font-size="14.00" fill="#000000">MemberService</text>
</g>
<!-- MemberService&#45;&gt;MemberModule -->
<g id="edge14" class="edge">
<title>MemberService&#45;&gt;MemberModule</title>
<path fill="none" stroke="#000000" d="M97,-122.0908C97,-145.1328 97,-182 97,-182 97,-182 1288.4757,-182 1288.4757,-182"/>
<polygon fill="#000000" stroke="#000000" points="1288.4757,-185.5001 1298.4757,-182 1288.4757,-178.5001 1288.4757,-185.5001"/>
</g>
</g>
</svg>
