<?xml version="1.0" encoding="UTF-8" standalone="no"?>
<!DOCTYPE svg PUBLIC "-//W3C//DTD SVG 1.1//EN"
 "http://www.w3.org/Graphics/SVG/1.1/DTD/svg11.dtd">
<!-- Generated by graphviz version 2.40.1 (20161225.0304)
 -->
<!-- Title: dependencies Pages: 1 -->
<svg width="3197pt" height="284pt"
 viewBox="0.00 0.00 3197.00 284.00" xmlns="http://www.w3.org/2000/svg" xmlns:xlink="http://www.w3.org/1999/xlink">
<g id="graph0" class="graph" transform="scale(1 1) rotate(0) translate(4 280)">
<title>dependencies</title>
<polygon fill="#ffffff" stroke="transparent" points="-4,4 -4,-280 3193,-280 3193,4 -4,4"/>
<text text-anchor="start" x="1573.5091" y="-42.4" font-family="sans-serif" font-weight="bold" font-size="14.00" fill="#000000">Legend</text>
<polygon fill="#ffffb3" stroke="transparent" points="1360.5,-10 1360.5,-30 1380.5,-30 1380.5,-10 1360.5,-10"/>
<text text-anchor="start" x="1384.129" y="-15.4" font-family="sans-serif" font-size="14.00" fill="#000000"> &#160;Declarations</text>
<polygon fill="#8dd3c7" stroke="transparent" points="1473.5,-10 1473.5,-30 1493.5,-30 1493.5,-10 1473.5,-10"/>
<text text-anchor="start" x="1497.2251" y="-15.4" font-family="sans-serif" font-size="14.00" fill="#000000"> &#160;Module</text>
<polygon fill="#80b1d3" stroke="transparent" points="1559.5,-10 1559.5,-30 1579.5,-30 1579.5,-10 1559.5,-10"/>
<text text-anchor="start" x="1583.2812" y="-15.4" font-family="sans-serif" font-size="14.00" fill="#000000"> &#160;Bootstrap</text>
<polygon fill="#fdb462" stroke="transparent" points="1656.5,-10 1656.5,-30 1676.5,-30 1676.5,-10 1656.5,-10"/>
<text text-anchor="start" x="1680.1732" y="-15.4" font-family="sans-serif" font-size="14.00" fill="#000000"> &#160;Providers</text>
<polygon fill="#fb8072" stroke="transparent" points="1752.5,-10 1752.5,-30 1772.5,-30 1772.5,-10 1752.5,-10"/>
<text text-anchor="start" x="1776.2258" y="-15.4" font-family="sans-serif" font-size="14.00" fill="#000000"> &#160;Exports</text>
<g id="clust1" class="cluster">
<title>cluster_AppModule</title>
<polygon fill="none" stroke="#000000" stroke-dasharray="1,5" points="8,-70 8,-268 3181,-268 3181,-70 8,-70"/>
</g>
<g id="clust2" class="cluster">
<title>cluster_AppModule_declarations</title>
<polygon fill="none" stroke="#000000" points="3051,-78 3051,-130 3173,-130 3173,-78 3051,-78"/>
</g>
<g id="clust4" class="cluster">
<title>cluster_AppModule_imports</title>
<polygon fill="none" stroke="#000000" points="642,-78 642,-130 3043,-130 3043,-78 642,-78"/>
</g>
<g id="clust6" class="cluster">
<title>cluster_AppModule_bootstrap</title>
<polygon fill="none" stroke="#000000" points="1749,-208 1749,-260 1873,-260 1873,-208 1749,-208"/>
</g>
<g id="clust7" class="cluster">
<title>cluster_AppModule_providers</title>
<polygon fill="none" stroke="#000000" points="16,-78 16,-130 634,-130 634,-78 16,-78"/>
</g>
<!-- AppComponent -->
<g id="node1" class="node">
<title>AppComponent</title>
<polygon fill="#ffffb3" stroke="#000000" points="3164.9399,-122 3059.0601,-122 3059.0601,-86 3164.9399,-86 3164.9399,-122"/>
<text text-anchor="middle" x="3112" y="-99.8" font-family="Times,serif" font-size="14.00" fill="#000000">AppComponent</text>
</g>
<!-- AppModule -->
<g id="node2" class="node">
<title>AppModule</title>
<polygon fill="#8dd3c7" stroke="#000000" points="1852.6571,-187 1849.6571,-191 1828.6571,-191 1825.6571,-187 1769.3429,-187 1769.3429,-151 1852.6571,-151 1852.6571,-187"/>
<text text-anchor="middle" x="1811" y="-164.8" font-family="Times,serif" font-size="14.00" fill="#000000">AppModule</text>
</g>
<!-- AppComponent&#45;&gt;AppModule -->
<g id="edge1" class="edge">
<title>AppComponent&#45;&gt;AppModule</title>
<path fill="none" stroke="#000000" d="M3112,-122.3228C3112,-145.6602 3112,-183 3112,-183 3112,-183 1862.8131,-183 1862.8131,-183"/>
<polygon fill="#000000" stroke="#000000" points="1862.8131,-179.5001 1852.8131,-183 1862.8131,-186.5001 1862.8131,-179.5001"/>
</g>
<!-- AppComponent  -->
<g id="node17" class="node">
<title>AppComponent </title>
<polygon fill="#80b1d3" stroke="#000000" points="1865.439,-252 1756.561,-252 1756.561,-216 1865.439,-216 1865.439,-252"/>
<text text-anchor="middle" x="1811" y="-229.8" font-family="Times,serif" font-size="14.00" fill="#000000">AppComponent </text>
</g>
<!-- AppModule&#45;&gt;AppComponent  -->
<g id="edge16" class="edge">
<title>AppModule&#45;&gt;AppComponent </title>
<path fill="none" stroke="#000000" stroke-dasharray="1,5" d="M1811,-187.1061C1811,-187.1061 1811,-205.991 1811,-205.991"/>
<polygon fill="#000000" stroke="#000000" points="1807.5001,-205.9909 1811,-215.991 1814.5001,-205.991 1807.5001,-205.9909"/>
</g>
<!-- NativeScriptModule -->
<g id="node3" class="node">
<title>NativeScriptModule</title>
<polygon fill="#8dd3c7" stroke="#000000" points="3035.3062,-122 3032.3062,-126 3011.3062,-126 3008.3062,-122 2904.6938,-122 2904.6938,-86 3035.3062,-86 3035.3062,-122"/>
<text text-anchor="middle" x="2970" y="-99.8" font-family="Times,serif" font-size="14.00" fill="#000000">NativeScriptModule</text>
</g>
<!-- NativeScriptModule&#45;&gt;AppModule -->
<g id="edge2" class="edge">
<title>NativeScriptModule&#45;&gt;AppModule</title>
<path fill="none" stroke="#000000" d="M2970,-122.2921C2970,-144.2057 2970,-178 2970,-178 2970,-178 1862.9341,-178 1862.9341,-178"/>
<polygon fill="#000000" stroke="#000000" points="1862.9342,-174.5001 1852.9341,-178 1862.9341,-181.5001 1862.9342,-174.5001"/>
</g>
<!-- NativeScriptRouterModule -->
<g id="node4" class="node">
<title>NativeScriptRouterModule</title>
<polygon fill="#8dd3c7" stroke="#000000" points="2887.4087,-122 2884.4087,-126 2863.4087,-126 2860.4087,-122 2718.5913,-122 2718.5913,-86 2887.4087,-86 2887.4087,-122"/>
<text text-anchor="middle" x="2803" y="-99.8" font-family="Times,serif" font-size="14.00" fill="#000000">NativeScriptRouterModule</text>
</g>
<!-- NativeScriptRouterModule&#45;&gt;AppModule -->
<g id="edge3" class="edge">
<title>NativeScriptRouterModule&#45;&gt;AppModule</title>
<path fill="none" stroke="#000000" d="M2803,-122.0267C2803,-142.7672 2803,-174 2803,-174 2803,-174 1862.6762,-174 1862.6762,-174"/>
<polygon fill="#000000" stroke="#000000" points="1862.6762,-170.5001 1852.6762,-174 1862.6761,-177.5001 1862.6762,-170.5001"/>
</g>
<!-- NativeScriptUIDataFormModule -->
<g id="node5" class="node">
<title>NativeScriptUIDataFormModule</title>
<polygon fill="#8dd3c7" stroke="#000000" points="2700.8333,-122 2697.8333,-126 2676.8333,-126 2673.8333,-122 2499.1667,-122 2499.1667,-86 2700.8333,-86 2700.8333,-122"/>
<text text-anchor="middle" x="2600" y="-99.8" font-family="Times,serif" font-size="14.00" fill="#000000">NativeScriptUIDataFormModule</text>
</g>
<!-- NativeScriptUIDataFormModule&#45;&gt;AppModule -->
<g id="edge4" class="edge">
<title>NativeScriptUIDataFormModule&#45;&gt;AppModule</title>
<path fill="none" stroke="#000000" d="M2600,-122.1061C2600,-141.3391 2600,-169 2600,-169 2600,-169 1862.863,-169 1862.863,-169"/>
<polygon fill="#000000" stroke="#000000" points="1862.863,-165.5001 1852.863,-169 1862.863,-172.5001 1862.863,-165.5001"/>
</g>
<!-- HomeModule -->
<g id="node6" class="node">
<title>HomeModule</title>
<polygon fill="#8dd3c7" stroke="#000000" points="2480.7619,-122 2477.7619,-126 2456.7619,-126 2453.7619,-122 2387.2381,-122 2387.2381,-86 2480.7619,-86 2480.7619,-122"/>
<text text-anchor="middle" x="2434" y="-99.8" font-family="Times,serif" font-size="14.00" fill="#000000">HomeModule</text>
</g>
<!-- HomeModule&#45;&gt;AppModule -->
<g id="edge5" class="edge">
<title>HomeModule&#45;&gt;AppModule</title>
<path fill="none" stroke="#000000" d="M2434,-122.302C2434,-140.2699 2434,-165 2434,-165 2434,-165 1862.8442,-165 1862.8442,-165"/>
<polygon fill="#000000" stroke="#000000" points="1862.8442,-161.5001 1852.8442,-165 1862.8441,-168.5001 1862.8442,-161.5001"/>
</g>
<!-- AbsenceModule.forRoot() -->
<g id="node7" class="node">
<title>AbsenceModule.forRoot()</title>
<polygon fill="#8dd3c7" stroke="#000000" points="2369.1144,-122 2366.1144,-126 2345.1144,-126 2342.1144,-122 2204.8856,-122 2204.8856,-86 2369.1144,-86 2369.1144,-122"/>
<text text-anchor="middle" x="2287" y="-99.8" font-family="Times,serif" font-size="14.00" fill="#000000">AbsenceModule.forRoot()</text>
</g>
<!-- AbsenceModule.forRoot()&#45;&gt;AppModule -->
<g id="edge6" class="edge">
<title>AbsenceModule.forRoot()&#45;&gt;AppModule</title>
<path fill="none" stroke="#000000" d="M2287,-122.027C2287,-138.3976 2287,-160 2287,-160 2287,-160 1862.8246,-160 1862.8246,-160"/>
<polygon fill="#000000" stroke="#000000" points="1862.8247,-156.5001 1852.8246,-160 1862.8246,-163.5001 1862.8247,-156.5001"/>
</g>
<!-- AuthenticationModule.forRoot() -->
<g id="node8" class="node">
<title>AuthenticationModule.forRoot()</title>
<polygon fill="#8dd3c7" stroke="#000000" points="2186.6228,-122 2183.6228,-126 2162.6228,-126 2159.6228,-122 1987.3772,-122 1987.3772,-86 2186.6228,-86 2186.6228,-122"/>
<text text-anchor="middle" x="2087" y="-99.8" font-family="Times,serif" font-size="14.00" fill="#000000">AuthenticationModule.forRoot()</text>
</g>
<!-- AuthenticationModule.forRoot()&#45;&gt;AppModule -->
<g id="edge7" class="edge">
<title>AuthenticationModule.forRoot()&#45;&gt;AppModule</title>
<path fill="none" stroke="#000000" d="M2087,-122.1871C2087,-137.1824 2087,-156 2087,-156 2087,-156 1862.9185,-156 1862.9185,-156"/>
<polygon fill="#000000" stroke="#000000" points="1862.9185,-152.5001 1852.9185,-156 1862.9184,-159.5001 1862.9185,-152.5001"/>
</g>
<!-- EventModule.forRoot() -->
<g id="node9" class="node">
<title>EventModule.forRoot()</title>
<polygon fill="#8dd3c7" stroke="#000000" points="1969.0778,-122 1966.0778,-126 1945.0778,-126 1942.0778,-122 1820.9222,-122 1820.9222,-86 1969.0778,-86 1969.0778,-122"/>
<text text-anchor="middle" x="1895" y="-99.8" font-family="Times,serif" font-size="14.00" fill="#000000">EventModule.forRoot()</text>
</g>
<!-- EventModule.forRoot()&#45;&gt;AppModule -->
<g id="edge8" class="edge">
<title>EventModule.forRoot()&#45;&gt;AppModule</title>
<path fill="none" stroke="#000000" d="M1836.7698,-122.1061C1836.7698,-122.1061 1836.7698,-140.991 1836.7698,-140.991"/>
<polygon fill="#000000" stroke="#000000" points="1833.2699,-140.9909 1836.7698,-150.991 1840.2699,-140.991 1833.2699,-140.9909"/>
</g>
<!-- GroupModule.forRoot() -->
<g id="node10" class="node">
<title>GroupModule.forRoot()</title>
<polygon fill="#8dd3c7" stroke="#000000" points="1802.6869,-122 1799.6869,-126 1778.6869,-126 1775.6869,-122 1651.3131,-122 1651.3131,-86 1802.6869,-86 1802.6869,-122"/>
<text text-anchor="middle" x="1727" y="-99.8" font-family="Times,serif" font-size="14.00" fill="#000000">GroupModule.forRoot()</text>
</g>
<!-- GroupModule.forRoot()&#45;&gt;AppModule -->
<g id="edge9" class="edge">
<title>GroupModule.forRoot()&#45;&gt;AppModule</title>
<path fill="none" stroke="#000000" d="M1786.0076,-122.1061C1786.0076,-122.1061 1786.0076,-140.991 1786.0076,-140.991"/>
<polygon fill="#000000" stroke="#000000" points="1782.5076,-140.9909 1786.0076,-150.991 1789.5076,-140.991 1782.5076,-140.9909"/>
</g>
<!-- MemberModule.forRoot() -->
<g id="node11" class="node">
<title>MemberModule.forRoot()</title>
<polygon fill="#8dd3c7" stroke="#000000" points="1632.8448,-122 1629.8448,-126 1608.8448,-126 1605.8448,-122 1469.1552,-122 1469.1552,-86 1632.8448,-86 1632.8448,-122"/>
<text text-anchor="middle" x="1551" y="-99.8" font-family="Times,serif" font-size="14.00" fill="#000000">MemberModule.forRoot()</text>
</g>
<!-- MemberModule.forRoot()&#45;&gt;AppModule -->
<g id="edge10" class="edge">
<title>MemberModule.forRoot()&#45;&gt;AppModule</title>
<path fill="none" stroke="#000000" d="M1551,-122.1871C1551,-137.1824 1551,-156 1551,-156 1551,-156 1759.2265,-156 1759.2265,-156"/>
<polygon fill="#000000" stroke="#000000" points="1759.2265,-159.5001 1769.2265,-156 1759.2265,-152.5001 1759.2265,-159.5001"/>
</g>
<!-- OrganisationModule.forRoot() -->
<g id="node12" class="node">
<title>OrganisationModule.forRoot()</title>
<polygon fill="#8dd3c7" stroke="#000000" points="1451.2323,-122 1448.2323,-126 1427.2323,-126 1424.2323,-122 1262.7677,-122 1262.7677,-86 1451.2323,-86 1451.2323,-122"/>
<text text-anchor="middle" x="1357" y="-99.8" font-family="Times,serif" font-size="14.00" fill="#000000">OrganisationModule.forRoot()</text>
</g>
<!-- OrganisationModule.forRoot()&#45;&gt;AppModule -->
<g id="edge11" class="edge">
<title>OrganisationModule.forRoot()&#45;&gt;AppModule</title>
<path fill="none" stroke="#000000" d="M1357,-122.027C1357,-138.3976 1357,-160 1357,-160 1357,-160 1759.1025,-160 1759.1025,-160"/>
<polygon fill="#000000" stroke="#000000" points="1759.1026,-163.5001 1769.1025,-160 1759.1025,-156.5001 1759.1026,-163.5001"/>
</g>
<!-- ParentModule.forRoot() -->
<g id="node13" class="node">
<title>ParentModule.forRoot()</title>
<polygon fill="#8dd3c7" stroke="#000000" points="1244.6827,-122 1241.6827,-126 1220.6827,-126 1217.6827,-122 1093.3173,-122 1093.3173,-86 1244.6827,-86 1244.6827,-122"/>
<text text-anchor="middle" x="1169" y="-99.8" font-family="Times,serif" font-size="14.00" fill="#000000">ParentModule.forRoot()</text>
</g>
<!-- ParentModule.forRoot()&#45;&gt;AppModule -->
<g id="edge12" class="edge">
<title>ParentModule.forRoot()&#45;&gt;AppModule</title>
<path fill="none" stroke="#000000" d="M1169,-122.302C1169,-140.2699 1169,-165 1169,-165 1169,-165 1758.8766,-165 1758.8766,-165"/>
<polygon fill="#000000" stroke="#000000" points="1758.8766,-168.5001 1768.8766,-165 1758.8766,-161.5001 1758.8766,-168.5001"/>
</g>
<!-- TimeTableModule.forRoot() -->
<g id="node14" class="node">
<title>TimeTableModule.forRoot()</title>
<polygon fill="#8dd3c7" stroke="#000000" points="1074.8405,-122 1071.8405,-126 1050.8405,-126 1047.8405,-122 897.1595,-122 897.1595,-86 1074.8405,-86 1074.8405,-122"/>
<text text-anchor="middle" x="986" y="-99.8" font-family="Times,serif" font-size="14.00" fill="#000000">TimeTableModule.forRoot()</text>
</g>
<!-- TimeTableModule.forRoot()&#45;&gt;AppModule -->
<g id="edge13" class="edge">
<title>TimeTableModule.forRoot()&#45;&gt;AppModule</title>
<path fill="none" stroke="#000000" d="M986,-122.1061C986,-141.3391 986,-169 986,-169 986,-169 1759.2388,-169 1759.2388,-169"/>
<polygon fill="#000000" stroke="#000000" points="1759.2388,-172.5001 1769.2388,-169 1759.2387,-165.5001 1759.2388,-172.5001"/>
</g>
<!-- SharedModule.forRoot() -->
<g id="node15" class="node">
<title>SharedModule.forRoot()</title>
<polygon fill="#8dd3c7" stroke="#000000" points="879.2919,-122 876.2919,-126 855.2919,-126 852.2919,-122 724.7081,-122 724.7081,-86 879.2919,-86 879.2919,-122"/>
<text text-anchor="middle" x="802" y="-99.8" font-family="Times,serif" font-size="14.00" fill="#000000">SharedModule.forRoot()</text>
</g>
<!-- SharedModule.forRoot()&#45;&gt;AppModule -->
<g id="edge14" class="edge">
<title>SharedModule.forRoot()&#45;&gt;AppModule</title>
<path fill="none" stroke="#000000" d="M802,-122.0267C802,-142.7672 802,-174 802,-174 802,-174 1759.2476,-174 1759.2476,-174"/>
<polygon fill="#000000" stroke="#000000" points="1759.2476,-177.5001 1769.2476,-174 1759.2475,-170.5001 1759.2476,-177.5001"/>
</g>
<!-- routing -->
<g id="node16" class="node">
<title>routing</title>
<polygon fill="#8dd3c7" stroke="#000000" points="706.4435,-122 703.4435,-126 682.4435,-126 679.4435,-122 649.5565,-122 649.5565,-86 706.4435,-86 706.4435,-122"/>
<text text-anchor="middle" x="678" y="-99.8" font-family="Times,serif" font-size="14.00" fill="#000000">routing</text>
</g>
<!-- routing&#45;&gt;AppModule -->
<g id="edge15" class="edge">
<title>routing&#45;&gt;AppModule</title>
<path fill="none" stroke="#000000" d="M678,-122.2921C678,-144.2057 678,-178 678,-178 678,-178 1759.3322,-178 1759.3322,-178"/>
<polygon fill="#000000" stroke="#000000" points="1759.3323,-181.5001 1769.3322,-178 1759.3322,-174.5001 1759.3323,-181.5001"/>
</g>
<!-- { provide: NgModuleFactoryLoader, useClass: NSModuleFactoryLoader } -->
<g id="node18" class="node">
<title>{ provide: NgModuleFactoryLoader, useClass: NSModuleFactoryLoader }</title>
<ellipse fill="#fdb462" stroke="#000000" cx="325" cy="-104" rx="301.2046" ry="18"/>
<text text-anchor="middle" x="325" y="-99.8" font-family="Times,serif" font-size="14.00" fill="#000000">{ provide: NgModuleFactoryLoader, useClass: NSModuleFactoryLoader }</text>
</g>
<!-- { provide: NgModuleFactoryLoader, useClass: NSModuleFactoryLoader }&#45;&gt;AppModule -->
<g id="edge17" class="edge">
<title>{ provide: NgModuleFactoryLoader, useClass: NSModuleFactoryLoader }&#45;&gt;AppModule</title>
<path fill="none" stroke="#000000" d="M325,-122.3228C325,-145.6602 325,-183 325,-183 325,-183 1759.3136,-183 1759.3136,-183"/>
<polygon fill="#000000" stroke="#000000" points="1759.3136,-186.5001 1769.3136,-183 1759.3136,-179.5001 1759.3136,-186.5001"/>
</g>
</g>
</svg>
