<?xml version="1.0" encoding="UTF-8" standalone="no"?>
<!DOCTYPE svg PUBLIC "-//W3C//DTD SVG 1.1//EN"
 "http://www.w3.org/Graphics/SVG/1.1/DTD/svg11.dtd">
<!-- Generated by graphviz version 2.40.1 (20161225.0304)
 -->
<!-- Title: dependencies Pages: 1 -->
<svg width="2346pt" height="211pt"
 viewBox="0.00 0.00 2346.00 211.00" xmlns="http://www.w3.org/2000/svg" xmlns:xlink="http://www.w3.org/1999/xlink">
<g id="graph0" class="graph" transform="scale(1 1) rotate(0) translate(4 207)">
<title>dependencies</title>
<polygon fill="#ffffff" stroke="transparent" points="-4,4 -4,-207 2342,-207 2342,4 -4,4"/>
<text text-anchor="start" x="1148.0091" y="-42.4" font-family="sans-serif" font-weight="bold" font-size="14.00" fill="#000000">Legend</text>
<polygon fill="#ffffb3" stroke="transparent" points="935,-10 935,-30 955,-30 955,-10 935,-10"/>
<text text-anchor="start" x="958.629" y="-15.4" font-family="sans-serif" font-size="14.00" fill="#000000"> &#160;Declarations</text>
<polygon fill="#8dd3c7" stroke="transparent" points="1048,-10 1048,-30 1068,-30 1068,-10 1048,-10"/>
<text text-anchor="start" x="1071.7251" y="-15.4" font-family="sans-serif" font-size="14.00" fill="#000000"> &#160;Module</text>
<polygon fill="#80b1d3" stroke="transparent" points="1134,-10 1134,-30 1154,-30 1154,-10 1134,-10"/>
<text text-anchor="start" x="1157.7812" y="-15.4" font-family="sans-serif" font-size="14.00" fill="#000000"> &#160;Bootstrap</text>
<polygon fill="#fdb462" stroke="transparent" points="1231,-10 1231,-30 1251,-30 1251,-10 1231,-10"/>
<text text-anchor="start" x="1254.6732" y="-15.4" font-family="sans-serif" font-size="14.00" fill="#000000"> &#160;Providers</text>
<polygon fill="#fb8072" stroke="transparent" points="1327,-10 1327,-30 1347,-30 1347,-10 1327,-10"/>
<text text-anchor="start" x="1350.7258" y="-15.4" font-family="sans-serif" font-size="14.00" fill="#000000"> &#160;Exports</text>
<g id="clust1" class="cluster">
<title>cluster_OrganisationModule</title>
<polygon fill="none" stroke="#000000" stroke-dasharray="1,5" points="8,-70 8,-195 2330,-195 2330,-70 8,-70"/>
</g>
<g id="clust2" class="cluster">
<title>cluster_OrganisationModule_declarations</title>
<polygon fill="none" stroke="#000000" points="1450,-78 1450,-130 2322,-130 2322,-78 1450,-78"/>
</g>
<g id="clust7" class="cluster">
<title>cluster_OrganisationModule_imports</title>
<polygon fill="none" stroke="#000000" points="16,-78 16,-130 1442,-130 1442,-78 16,-78"/>
</g>
<!-- OrganisationDashboardComponent -->
<g id="node1" class="node">
<title>OrganisationDashboardComponent</title>
<polygon fill="#ffffb3" stroke="#000000" points="2314.2864,-122 2099.7136,-122 2099.7136,-86 2314.2864,-86 2314.2864,-122"/>
<text text-anchor="middle" x="2207" y="-99.8" font-family="Times,serif" font-size="14.00" fill="#000000">OrganisationDashboardComponent</text>
</g>
<!-- OrganisationModule -->
<g id="node5" class="node">
<title>OrganisationModule</title>
<polygon fill="#8dd3c7" stroke="#000000" points="1247.8627,-187 1244.8627,-191 1223.8627,-191 1220.8627,-187 1116.1373,-187 1116.1373,-151 1247.8627,-151 1247.8627,-187"/>
<text text-anchor="middle" x="1182" y="-164.8" font-family="Times,serif" font-size="14.00" fill="#000000">OrganisationModule</text>
</g>
<!-- OrganisationDashboardComponent&#45;&gt;OrganisationModule -->
<g id="edge1" class="edge">
<title>OrganisationDashboardComponent&#45;&gt;OrganisationModule</title>
<path fill="none" stroke="#000000" d="M2207,-122.0908C2207,-145.1328 2207,-182 2207,-182 2207,-182 1258.07,-182 1258.07,-182"/>
<polygon fill="#000000" stroke="#000000" points="1258.07,-178.5001 1248.07,-182 1258.0699,-185.5001 1258.07,-178.5001"/>
</g>
<!-- OrganisationRegisterComponent -->
<g id="node2" class="node">
<title>OrganisationRegisterComponent</title>
<polygon fill="#ffffb3" stroke="#000000" points="2082.2976,-122 1881.7024,-122 1881.7024,-86 2082.2976,-86 2082.2976,-122"/>
<text text-anchor="middle" x="1982" y="-99.8" font-family="Times,serif" font-size="14.00" fill="#000000">OrganisationRegisterComponent</text>
</g>
<!-- OrganisationRegisterComponent&#45;&gt;OrganisationModule -->
<g id="edge2" class="edge">
<title>OrganisationRegisterComponent&#45;&gt;OrganisationModule</title>
<path fill="none" stroke="#000000" d="M1982,-122.2843C1982,-143.3211 1982,-175 1982,-175 1982,-175 1258.148,-175 1258.148,-175"/>
<polygon fill="#000000" stroke="#000000" points="1258.148,-171.5001 1248.148,-175 1258.1479,-178.5001 1258.148,-171.5001"/>
</g>
<!-- OrganisationRegisterSuccessComponent -->
<g id="node3" class="node">
<title>OrganisationRegisterSuccessComponent</title>
<polygon fill="#ffffb3" stroke="#000000" points="1864.1133,-122 1619.8867,-122 1619.8867,-86 1864.1133,-86 1864.1133,-122"/>
<text text-anchor="middle" x="1742" y="-99.8" font-family="Times,serif" font-size="14.00" fill="#000000">OrganisationRegisterSuccessComponent</text>
</g>
<!-- OrganisationRegisterSuccessComponent&#45;&gt;OrganisationModule -->
<g id="edge3" class="edge">
<title>OrganisationRegisterSuccessComponent&#45;&gt;OrganisationModule</title>
<path fill="none" stroke="#000000" d="M1742,-122.1061C1742,-141.3391 1742,-169 1742,-169 1742,-169 1257.8859,-169 1257.8859,-169"/>
<polygon fill="#000000" stroke="#000000" points="1257.8859,-165.5001 1247.8859,-169 1257.8858,-172.5001 1257.8859,-165.5001"/>
</g>
<!-- OrganisationFilterPipe -->
<g id="node4" class="node">
<title>OrganisationFilterPipe</title>
<polygon fill="#ffffb3" stroke="#000000" points="1601.531,-122 1458.469,-122 1458.469,-86 1601.531,-86 1601.531,-122"/>
<text text-anchor="middle" x="1530" y="-99.8" font-family="Times,serif" font-size="14.00" fill="#000000">OrganisationFilterPipe</text>
</g>
<!-- OrganisationFilterPipe&#45;&gt;OrganisationModule -->
<g id="edge4" class="edge">
<title>OrganisationFilterPipe&#45;&gt;OrganisationModule</title>
<path fill="none" stroke="#000000" d="M1530,-122.0225C1530,-139.3734 1530,-163 1530,-163 1530,-163 1257.8653,-163 1257.8653,-163"/>
<polygon fill="#000000" stroke="#000000" points="1257.8653,-159.5001 1247.8653,-163 1257.8652,-166.5001 1257.8653,-159.5001"/>
</g>
<!-- CommonModule -->
<g id="node6" class="node">
<title>CommonModule</title>
<polygon fill="#8dd3c7" stroke="#000000" points="1433.6681,-122 1430.6681,-126 1409.6681,-126 1406.6681,-122 1322.3319,-122 1322.3319,-86 1433.6681,-86 1433.6681,-122"/>
<text text-anchor="middle" x="1378" y="-99.8" font-family="Times,serif" font-size="14.00" fill="#000000">CommonModule</text>
</g>
<!-- CommonModule&#45;&gt;OrganisationModule -->
<g id="edge5" class="edge">
<title>CommonModule&#45;&gt;OrganisationModule</title>
<path fill="none" stroke="#000000" d="M1378,-122.2396C1378,-137.5706 1378,-157 1378,-157 1378,-157 1258.0834,-157 1258.0834,-157"/>
<polygon fill="#000000" stroke="#000000" points="1258.0834,-153.5001 1248.0834,-157 1258.0834,-160.5001 1258.0834,-153.5001"/>
</g>
<!-- SharedModule -->
<g id="node7" class="node">
<title>SharedModule</title>
<polygon fill="#8dd3c7" stroke="#000000" points="1304.4231,-122 1301.4231,-126 1280.4231,-126 1277.4231,-122 1205.5769,-122 1205.5769,-86 1304.4231,-86 1304.4231,-122"/>
<text text-anchor="middle" x="1255" y="-99.8" font-family="Times,serif" font-size="14.00" fill="#000000">SharedModule</text>
</g>
<!-- SharedModule&#45;&gt;OrganisationModule -->
<g id="edge6" class="edge">
<title>SharedModule&#45;&gt;OrganisationModule</title>
<path fill="none" stroke="#000000" d="M1226.8601,-122.1061C1226.8601,-122.1061 1226.8601,-140.991 1226.8601,-140.991"/>
<polygon fill="#000000" stroke="#000000" points="1223.3602,-140.9909 1226.8601,-150.991 1230.3602,-140.991 1223.3602,-140.9909"/>
</g>
<!-- NativeScriptHttpModule -->
<g id="node8" class="node">
<title>NativeScriptHttpModule</title>
<polygon fill="#8dd3c7" stroke="#000000" points="1187.6937,-122 1184.6937,-126 1163.6937,-126 1160.6937,-122 1032.3063,-122 1032.3063,-86 1187.6937,-86 1187.6937,-122"/>
<text text-anchor="middle" x="1110" y="-99.8" font-family="Times,serif" font-size="14.00" fill="#000000">NativeScriptHttpModule</text>
</g>
<!-- NativeScriptHttpModule&#45;&gt;OrganisationModule -->
<g id="edge7" class="edge">
<title>NativeScriptHttpModule&#45;&gt;OrganisationModule</title>
<path fill="none" stroke="#000000" d="M1151.8328,-122.1061C1151.8328,-122.1061 1151.8328,-140.991 1151.8328,-140.991"/>
<polygon fill="#000000" stroke="#000000" points="1148.3328,-140.9909 1151.8328,-150.991 1155.3328,-140.991 1148.3328,-140.9909"/>
</g>
<!-- NativeScriptModule -->
<g id="node9" class="node">
<title>NativeScriptModule</title>
<polygon fill="#8dd3c7" stroke="#000000" points="1014.3062,-122 1011.3062,-126 990.3062,-126 987.3062,-122 883.6938,-122 883.6938,-86 1014.3062,-86 1014.3062,-122"/>
<text text-anchor="middle" x="949" y="-99.8" font-family="Times,serif" font-size="14.00" fill="#000000">NativeScriptModule</text>
</g>
<!-- NativeScriptModule&#45;&gt;OrganisationModule -->
<g id="edge8" class="edge">
<title>NativeScriptModule&#45;&gt;OrganisationModule</title>
<path fill="none" stroke="#000000" d="M949,-122.2396C949,-137.5706 949,-157 949,-157 949,-157 1105.8548,-157 1105.8548,-157"/>
<polygon fill="#000000" stroke="#000000" points="1105.8548,-160.5001 1115.8548,-157 1105.8548,-153.5001 1105.8548,-160.5001"/>
</g>
<!-- NativeScriptFormsModule -->
<g id="node10" class="node">
<title>NativeScriptFormsModule</title>
<polygon fill="#8dd3c7" stroke="#000000" points="866.0842,-122 863.0842,-126 842.0842,-126 839.0842,-122 699.9158,-122 699.9158,-86 866.0842,-86 866.0842,-122"/>
<text text-anchor="middle" x="783" y="-99.8" font-family="Times,serif" font-size="14.00" fill="#000000">NativeScriptFormsModule</text>
</g>
<!-- NativeScriptFormsModule&#45;&gt;OrganisationModule -->
<g id="edge9" class="edge">
<title>NativeScriptFormsModule&#45;&gt;OrganisationModule</title>
<path fill="none" stroke="#000000" d="M783,-122.0225C783,-139.3734 783,-163 783,-163 783,-163 1106.1133,-163 1106.1133,-163"/>
<polygon fill="#000000" stroke="#000000" points="1106.1133,-166.5001 1116.1133,-163 1106.1132,-159.5001 1106.1133,-166.5001"/>
</g>
<!-- NativeScriptUIDataFormModule -->
<g id="node11" class="node">
<title>NativeScriptUIDataFormModule</title>
<polygon fill="#8dd3c7" stroke="#000000" points="681.8333,-122 678.8333,-126 657.8333,-126 654.8333,-122 480.1667,-122 480.1667,-86 681.8333,-86 681.8333,-122"/>
<text text-anchor="middle" x="581" y="-99.8" font-family="Times,serif" font-size="14.00" fill="#000000">NativeScriptUIDataFormModule</text>
</g>
<!-- NativeScriptUIDataFormModule&#45;&gt;OrganisationModule -->
<g id="edge10" class="edge">
<title>NativeScriptUIDataFormModule&#45;&gt;OrganisationModule</title>
<path fill="none" stroke="#000000" d="M581,-122.1061C581,-141.3391 581,-169 581,-169 581,-169 1105.9633,-169 1105.9633,-169"/>
<polygon fill="#000000" stroke="#000000" points="1105.9633,-172.5001 1115.9633,-169 1105.9633,-165.5001 1105.9633,-172.5001"/>
</g>
<!-- NativeScriptRouterModule -->
<g id="node12" class="node">
<title>NativeScriptRouterModule</title>
<polygon fill="#8dd3c7" stroke="#000000" points="462.4087,-122 459.4087,-126 438.4087,-126 435.4087,-122 293.5913,-122 293.5913,-86 462.4087,-86 462.4087,-122"/>
<text text-anchor="middle" x="378" y="-99.8" font-family="Times,serif" font-size="14.00" fill="#000000">NativeScriptRouterModule</text>
</g>
<!-- NativeScriptRouterModule&#45;&gt;OrganisationModule -->
<g id="edge11" class="edge">
<title>NativeScriptRouterModule&#45;&gt;OrganisationModule</title>
<path fill="none" stroke="#000000" d="M378,-122.2843C378,-143.3211 378,-175 378,-175 378,-175 1105.8637,-175 1105.8637,-175"/>
<polygon fill="#000000" stroke="#000000" points="1105.8637,-178.5001 1115.8637,-175 1105.8636,-171.5001 1105.8637,-178.5001"/>
</g>
<!-- NativeScriptRouterModule.forChild(args) -->
<g id="node13" class="node">
<title>NativeScriptRouterModule.forChild(args)</title>
<polygon fill="#8dd3c7" stroke="#000000" points="275.9882,-122 272.9882,-126 251.9882,-126 248.9882,-122 24.0118,-122 24.0118,-86 275.9882,-86 275.9882,-122"/>
<text text-anchor="middle" x="150" y="-99.8" font-family="Times,serif" font-size="14.00" fill="#000000">NativeScriptRouterModule.forChild(args)</text>
</g>
<!-- NativeScriptRouterModule.forChild(args)&#45;&gt;OrganisationModule -->
<g id="edge12" class="edge">
<title>NativeScriptRouterModule.forChild(args)&#45;&gt;OrganisationModule</title>
<path fill="none" stroke="#000000" d="M150,-122.0908C150,-145.1328 150,-182 150,-182 150,-182 1105.8739,-182 1105.8739,-182"/>
<polygon fill="#000000" stroke="#000000" points="1105.8739,-185.5001 1115.8739,-182 1105.8738,-178.5001 1105.8739,-185.5001"/>
</g>
</g>
</svg>
