<?xml version="1.0" encoding="UTF-8" standalone="no"?>
<!DOCTYPE svg PUBLIC "-//W3C//DTD SVG 1.1//EN"
 "http://www.w3.org/Graphics/SVG/1.1/DTD/svg11.dtd">
<!-- Generated by graphviz version 2.40.1 (20161225.0304)
 -->
<!-- Title: dependencies Pages: 1 -->
<svg width="1957pt" height="211pt"
 viewBox="0.00 0.00 1957.00 211.00" xmlns="http://www.w3.org/2000/svg" xmlns:xlink="http://www.w3.org/1999/xlink">
<g id="graph0" class="graph" transform="scale(1 1) rotate(0) translate(4 207)">
<title>dependencies</title>
<polygon fill="#ffffff" stroke="transparent" points="-4,4 -4,-207 1953,-207 1953,4 -4,4"/>
<text text-anchor="start" x="953.5091" y="-42.4" font-family="sans-serif" font-weight="bold" font-size="14.00" fill="#000000">Legend</text>
<polygon fill="#ffffb3" stroke="transparent" points="740.5,-10 740.5,-30 760.5,-30 760.5,-10 740.5,-10"/>
<text text-anchor="start" x="764.129" y="-15.4" font-family="sans-serif" font-size="14.00" fill="#000000"> &#160;Declarations</text>
<polygon fill="#8dd3c7" stroke="transparent" points="853.5,-10 853.5,-30 873.5,-30 873.5,-10 853.5,-10"/>
<text text-anchor="start" x="877.2251" y="-15.4" font-family="sans-serif" font-size="14.00" fill="#000000"> &#160;Module</text>
<polygon fill="#80b1d3" stroke="transparent" points="939.5,-10 939.5,-30 959.5,-30 959.5,-10 939.5,-10"/>
<text text-anchor="start" x="963.2812" y="-15.4" font-family="sans-serif" font-size="14.00" fill="#000000"> &#160;Bootstrap</text>
<polygon fill="#fdb462" stroke="transparent" points="1036.5,-10 1036.5,-30 1056.5,-30 1056.5,-10 1036.5,-10"/>
<text text-anchor="start" x="1060.1732" y="-15.4" font-family="sans-serif" font-size="14.00" fill="#000000"> &#160;Providers</text>
<polygon fill="#fb8072" stroke="transparent" points="1132.5,-10 1132.5,-30 1152.5,-30 1152.5,-10 1132.5,-10"/>
<text text-anchor="start" x="1156.2258" y="-15.4" font-family="sans-serif" font-size="14.00" fill="#000000"> &#160;Exports</text>
<g id="clust1" class="cluster">
<title>cluster_GroupModule</title>
<polygon fill="none" stroke="#000000" stroke-dasharray="1,5" points="8,-70 8,-195 1941,-195 1941,-70 8,-70"/>
</g>
<g id="clust2" class="cluster">
<title>cluster_GroupModule_declarations</title>
<polygon fill="none" stroke="#000000" points="1450,-78 1450,-130 1933,-130 1933,-78 1450,-78"/>
</g>
<g id="clust6" class="cluster">
<title>cluster_GroupModule_imports</title>
<polygon fill="none" stroke="#000000" points="16,-78 16,-130 1442,-130 1442,-78 16,-78"/>
</g>
<!-- GroupDetailComponent -->
<g id="node1" class="node">
<title>GroupDetailComponent</title>
<polygon fill="#ffffb3" stroke="#000000" points="1924.8075,-122 1773.1925,-122 1773.1925,-86 1924.8075,-86 1924.8075,-122"/>
<text text-anchor="middle" x="1849" y="-99.8" font-family="Times,serif" font-size="14.00" fill="#000000">GroupDetailComponent</text>
</g>
<!-- GroupModule -->
<g id="node4" class="node">
<title>GroupModule</title>
<polygon fill="#8dd3c7" stroke="#000000" points="1157.8175,-187 1154.8175,-191 1133.8175,-191 1130.8175,-187 1062.1825,-187 1062.1825,-151 1157.8175,-151 1157.8175,-187"/>
<text text-anchor="middle" x="1110" y="-164.8" font-family="Times,serif" font-size="14.00" fill="#000000">GroupModule</text>
</g>
<!-- GroupDetailComponent&#45;&gt;GroupModule -->
<g id="edge1" class="edge">
<title>GroupDetailComponent&#45;&gt;GroupModule</title>
<path fill="none" stroke="#000000" d="M1849,-122.0908C1849,-145.1328 1849,-182 1849,-182 1849,-182 1167.9184,-182 1167.9184,-182"/>
<polygon fill="#000000" stroke="#000000" points="1167.9185,-178.5001 1157.9184,-182 1167.9184,-185.5001 1167.9185,-178.5001"/>
</g>
<!-- GroupOverviewComponent -->
<g id="node2" class="node">
<title>GroupOverviewComponent</title>
<polygon fill="#ffffb3" stroke="#000000" points="1755.2934,-122 1582.7066,-122 1582.7066,-86 1755.2934,-86 1755.2934,-122"/>
<text text-anchor="middle" x="1669" y="-99.8" font-family="Times,serif" font-size="14.00" fill="#000000">GroupOverviewComponent</text>
</g>
<!-- GroupOverviewComponent&#45;&gt;GroupModule -->
<g id="edge2" class="edge">
<title>GroupOverviewComponent&#45;&gt;GroupModule</title>
<path fill="none" stroke="#000000" d="M1669,-122.2843C1669,-143.3211 1669,-175 1669,-175 1669,-175 1167.66,-175 1167.66,-175"/>
<polygon fill="#000000" stroke="#000000" points="1167.6601,-171.5001 1157.66,-175 1167.66,-178.5001 1167.6601,-171.5001"/>
</g>
<!-- GroupFilterPipe -->
<g id="node3" class="node">
<title>GroupFilterPipe</title>
<polygon fill="#ffffb3" stroke="#000000" points="1564.4846,-122 1457.5154,-122 1457.5154,-86 1564.4846,-86 1564.4846,-122"/>
<text text-anchor="middle" x="1511" y="-99.8" font-family="Times,serif" font-size="14.00" fill="#000000">GroupFilterPipe</text>
</g>
<!-- GroupFilterPipe&#45;&gt;GroupModule -->
<g id="edge3" class="edge">
<title>GroupFilterPipe&#45;&gt;GroupModule</title>
<path fill="none" stroke="#000000" d="M1511,-122.1061C1511,-141.3391 1511,-169 1511,-169 1511,-169 1167.9717,-169 1167.9717,-169"/>
<polygon fill="#000000" stroke="#000000" points="1167.9717,-165.5001 1157.9717,-169 1167.9716,-172.5001 1167.9717,-165.5001"/>
</g>
<!-- CommonModule -->
<g id="node5" class="node">
<title>CommonModule</title>
<polygon fill="#8dd3c7" stroke="#000000" points="1433.6681,-122 1430.6681,-126 1409.6681,-126 1406.6681,-122 1322.3319,-122 1322.3319,-86 1433.6681,-86 1433.6681,-122"/>
<text text-anchor="middle" x="1378" y="-99.8" font-family="Times,serif" font-size="14.00" fill="#000000">CommonModule</text>
</g>
<!-- CommonModule&#45;&gt;GroupModule -->
<g id="edge4" class="edge">
<title>CommonModule&#45;&gt;GroupModule</title>
<path fill="none" stroke="#000000" d="M1378,-122.0225C1378,-139.3734 1378,-163 1378,-163 1378,-163 1167.913,-163 1167.913,-163"/>
<polygon fill="#000000" stroke="#000000" points="1167.9131,-159.5001 1157.913,-163 1167.913,-166.5001 1167.9131,-159.5001"/>
</g>
<!-- SharedModule -->
<g id="node6" class="node">
<title>SharedModule</title>
<polygon fill="#8dd3c7" stroke="#000000" points="1304.4231,-122 1301.4231,-126 1280.4231,-126 1277.4231,-122 1205.5769,-122 1205.5769,-86 1304.4231,-86 1304.4231,-122"/>
<text text-anchor="middle" x="1255" y="-99.8" font-family="Times,serif" font-size="14.00" fill="#000000">SharedModule</text>
</g>
<!-- SharedModule&#45;&gt;GroupModule -->
<g id="edge5" class="edge">
<title>SharedModule&#45;&gt;GroupModule</title>
<path fill="none" stroke="#000000" d="M1255,-122.2396C1255,-137.5706 1255,-157 1255,-157 1255,-157 1167.8803,-157 1167.8803,-157"/>
<polygon fill="#000000" stroke="#000000" points="1167.8803,-153.5001 1157.8803,-157 1167.8802,-160.5001 1167.8803,-153.5001"/>
</g>
<!-- NativeScriptHttpModule -->
<g id="node7" class="node">
<title>NativeScriptHttpModule</title>
<polygon fill="#8dd3c7" stroke="#000000" points="1187.6937,-122 1184.6937,-126 1163.6937,-126 1160.6937,-122 1032.3063,-122 1032.3063,-86 1187.6937,-86 1187.6937,-122"/>
<text text-anchor="middle" x="1110" y="-99.8" font-family="Times,serif" font-size="14.00" fill="#000000">NativeScriptHttpModule</text>
</g>
<!-- NativeScriptHttpModule&#45;&gt;GroupModule -->
<g id="edge6" class="edge">
<title>NativeScriptHttpModule&#45;&gt;GroupModule</title>
<path fill="none" stroke="#000000" d="M1110,-122.1061C1110,-122.1061 1110,-140.991 1110,-140.991"/>
<polygon fill="#000000" stroke="#000000" points="1106.5001,-140.9909 1110,-150.991 1113.5001,-140.991 1106.5001,-140.9909"/>
</g>
<!-- NativeScriptModule -->
<g id="node8" class="node">
<title>NativeScriptModule</title>
<polygon fill="#8dd3c7" stroke="#000000" points="1014.3062,-122 1011.3062,-126 990.3062,-126 987.3062,-122 883.6938,-122 883.6938,-86 1014.3062,-86 1014.3062,-122"/>
<text text-anchor="middle" x="949" y="-99.8" font-family="Times,serif" font-size="14.00" fill="#000000">NativeScriptModule</text>
</g>
<!-- NativeScriptModule&#45;&gt;GroupModule -->
<g id="edge7" class="edge">
<title>NativeScriptModule&#45;&gt;GroupModule</title>
<path fill="none" stroke="#000000" d="M949,-122.2396C949,-137.5706 949,-157 949,-157 949,-157 1052.1306,-157 1052.1306,-157"/>
<polygon fill="#000000" stroke="#000000" points="1052.1306,-160.5001 1062.1306,-157 1052.1306,-153.5001 1052.1306,-160.5001"/>
</g>
<!-- NativeScriptFormsModule -->
<g id="node9" class="node">
<title>NativeScriptFormsModule</title>
<polygon fill="#8dd3c7" stroke="#000000" points="866.0842,-122 863.0842,-126 842.0842,-126 839.0842,-122 699.9158,-122 699.9158,-86 866.0842,-86 866.0842,-122"/>
<text text-anchor="middle" x="783" y="-99.8" font-family="Times,serif" font-size="14.00" fill="#000000">NativeScriptFormsModule</text>
</g>
<!-- NativeScriptFormsModule&#45;&gt;GroupModule -->
<g id="edge8" class="edge">
<title>NativeScriptFormsModule&#45;&gt;GroupModule</title>
<path fill="none" stroke="#000000" d="M783,-122.0225C783,-139.3734 783,-163 783,-163 783,-163 1052.1012,-163 1052.1012,-163"/>
<polygon fill="#000000" stroke="#000000" points="1052.1012,-166.5001 1062.1012,-163 1052.1012,-159.5001 1052.1012,-166.5001"/>
</g>
<!-- NativeScriptUIDataFormModule -->
<g id="node10" class="node">
<title>NativeScriptUIDataFormModule</title>
<polygon fill="#8dd3c7" stroke="#000000" points="681.8333,-122 678.8333,-126 657.8333,-126 654.8333,-122 480.1667,-122 480.1667,-86 681.8333,-86 681.8333,-122"/>
<text text-anchor="middle" x="581" y="-99.8" font-family="Times,serif" font-size="14.00" fill="#000000">NativeScriptUIDataFormModule</text>
</g>
<!-- NativeScriptUIDataFormModule&#45;&gt;GroupModule -->
<g id="edge9" class="edge">
<title>NativeScriptUIDataFormModule&#45;&gt;GroupModule</title>
<path fill="none" stroke="#000000" d="M581,-122.1061C581,-141.3391 581,-169 581,-169 581,-169 1052.1218,-169 1052.1218,-169"/>
<polygon fill="#000000" stroke="#000000" points="1052.1218,-172.5001 1062.1218,-169 1052.1217,-165.5001 1052.1218,-172.5001"/>
</g>
<!-- NativeScriptRouterModule -->
<g id="node11" class="node">
<title>NativeScriptRouterModule</title>
<polygon fill="#8dd3c7" stroke="#000000" points="462.4087,-122 459.4087,-126 438.4087,-126 435.4087,-122 293.5913,-122 293.5913,-86 462.4087,-86 462.4087,-122"/>
<text text-anchor="middle" x="378" y="-99.8" font-family="Times,serif" font-size="14.00" fill="#000000">NativeScriptRouterModule</text>
</g>
<!-- NativeScriptRouterModule&#45;&gt;GroupModule -->
<g id="edge10" class="edge">
<title>NativeScriptRouterModule&#45;&gt;GroupModule</title>
<path fill="none" stroke="#000000" d="M378,-122.2843C378,-143.3211 378,-175 378,-175 378,-175 1052.2538,-175 1052.2538,-175"/>
<polygon fill="#000000" stroke="#000000" points="1052.2538,-178.5001 1062.2538,-175 1052.2538,-171.5001 1052.2538,-178.5001"/>
</g>
<!-- NativeScriptRouterModule.forChild(args) -->
<g id="node12" class="node">
<title>NativeScriptRouterModule.forChild(args)</title>
<polygon fill="#8dd3c7" stroke="#000000" points="275.9882,-122 272.9882,-126 251.9882,-126 248.9882,-122 24.0118,-122 24.0118,-86 275.9882,-86 275.9882,-122"/>
<text text-anchor="middle" x="150" y="-99.8" font-family="Times,serif" font-size="14.00" fill="#000000">NativeScriptRouterModule.forChild(args)</text>
</g>
<!-- NativeScriptRouterModule.forChild(args)&#45;&gt;GroupModule -->
<g id="edge11" class="edge">
<title>NativeScriptRouterModule.forChild(args)&#45;&gt;GroupModule</title>
<path fill="none" stroke="#000000" d="M150,-122.0908C150,-145.1328 150,-182 150,-182 150,-182 1052.065,-182 1052.065,-182"/>
<polygon fill="#000000" stroke="#000000" points="1052.065,-185.5001 1062.065,-182 1052.065,-178.5001 1052.065,-185.5001"/>
</g>
</g>
</svg>
