<?xml version="1.0" encoding="UTF-8" standalone="no"?>
<!DOCTYPE svg PUBLIC "-//W3C//DTD SVG 1.1//EN"
 "http://www.w3.org/Graphics/SVG/1.1/DTD/svg11.dtd">
<!-- Generated by graphviz version 2.40.1 (20161225.0304)
 -->
<!-- Title: dependencies Pages: 1 -->
<svg width="1948pt" height="211pt"
 viewBox="0.00 0.00 1948.00 211.00" xmlns="http://www.w3.org/2000/svg" xmlns:xlink="http://www.w3.org/1999/xlink">
<g id="graph0" class="graph" transform="scale(1 1) rotate(0) translate(4 207)">
<title>dependencies</title>
<polygon fill="#ffffff" stroke="transparent" points="-4,4 -4,-207 1944,-207 1944,4 -4,4"/>
<text text-anchor="start" x="949.0091" y="-42.4" font-family="sans-serif" font-weight="bold" font-size="14.00" fill="#000000">Legend</text>
<polygon fill="#ffffb3" stroke="transparent" points="736,-10 736,-30 756,-30 756,-10 736,-10"/>
<text text-anchor="start" x="759.629" y="-15.4" font-family="sans-serif" font-size="14.00" fill="#000000"> &#160;Declarations</text>
<polygon fill="#8dd3c7" stroke="transparent" points="849,-10 849,-30 869,-30 869,-10 849,-10"/>
<text text-anchor="start" x="872.7251" y="-15.4" font-family="sans-serif" font-size="14.00" fill="#000000"> &#160;Module</text>
<polygon fill="#80b1d3" stroke="transparent" points="935,-10 935,-30 955,-30 955,-10 935,-10"/>
<text text-anchor="start" x="958.7812" y="-15.4" font-family="sans-serif" font-size="14.00" fill="#000000"> &#160;Bootstrap</text>
<polygon fill="#fdb462" stroke="transparent" points="1032,-10 1032,-30 1052,-30 1052,-10 1032,-10"/>
<text text-anchor="start" x="1055.6732" y="-15.4" font-family="sans-serif" font-size="14.00" fill="#000000"> &#160;Providers</text>
<polygon fill="#fb8072" stroke="transparent" points="1128,-10 1128,-30 1148,-30 1148,-10 1128,-10"/>
<text text-anchor="start" x="1151.7258" y="-15.4" font-family="sans-serif" font-size="14.00" fill="#000000"> &#160;Exports</text>
<g id="clust1" class="cluster">
<title>cluster_EventModule</title>
<polygon fill="none" stroke="#000000" stroke-dasharray="1,5" points="8,-70 8,-195 1932,-195 1932,-70 8,-70"/>
</g>
<g id="clust2" class="cluster">
<title>cluster_EventModule_declarations</title>
<polygon fill="none" stroke="#000000" points="1450,-78 1450,-130 1924,-130 1924,-78 1450,-78"/>
</g>
<g id="clust6" class="cluster">
<title>cluster_EventModule_imports</title>
<polygon fill="none" stroke="#000000" points="16,-78 16,-130 1442,-130 1442,-78 16,-78"/>
</g>
<!-- EventOverviewComponent -->
<g id="node1" class="node">
<title>EventOverviewComponent</title>
<polygon fill="#ffffb3" stroke="#000000" points="1915.6839,-122 1746.3161,-122 1746.3161,-86 1915.6839,-86 1915.6839,-122"/>
<text text-anchor="middle" x="1831" y="-99.8" font-family="Times,serif" font-size="14.00" fill="#000000">EventOverviewComponent</text>
</g>
<!-- EventModule -->
<g id="node4" class="node">
<title>EventModule</title>
<polygon fill="#8dd3c7" stroke="#000000" points="1156.2078,-187 1153.2078,-191 1132.2078,-191 1129.2078,-187 1063.7922,-187 1063.7922,-151 1156.2078,-151 1156.2078,-187"/>
<text text-anchor="middle" x="1110" y="-164.8" font-family="Times,serif" font-size="14.00" fill="#000000">EventModule</text>
</g>
<!-- EventOverviewComponent&#45;&gt;EventModule -->
<g id="edge1" class="edge">
<title>EventOverviewComponent&#45;&gt;EventModule</title>
<path fill="none" stroke="#000000" d="M1831,-122.0908C1831,-145.1328 1831,-182 1831,-182 1831,-182 1166.1986,-182 1166.1986,-182"/>
<polygon fill="#000000" stroke="#000000" points="1166.1986,-178.5001 1156.1986,-182 1166.1986,-185.5001 1166.1986,-178.5001"/>
</g>
<!-- EventDetailComponent -->
<g id="node2" class="node">
<title>EventDetailComponent</title>
<polygon fill="#ffffb3" stroke="#000000" points="1728.1979,-122 1579.8021,-122 1579.8021,-86 1728.1979,-86 1728.1979,-122"/>
<text text-anchor="middle" x="1654" y="-99.8" font-family="Times,serif" font-size="14.00" fill="#000000">EventDetailComponent</text>
</g>
<!-- EventDetailComponent&#45;&gt;EventModule -->
<g id="edge2" class="edge">
<title>EventDetailComponent&#45;&gt;EventModule</title>
<path fill="none" stroke="#000000" d="M1654,-122.2843C1654,-143.3211 1654,-175 1654,-175 1654,-175 1166.3811,-175 1166.3811,-175"/>
<polygon fill="#000000" stroke="#000000" points="1166.3812,-171.5001 1156.3811,-175 1166.3811,-178.5001 1166.3812,-171.5001"/>
</g>
<!-- EventFilterPipe -->
<g id="node3" class="node">
<title>EventFilterPipe</title>
<polygon fill="#ffffb3" stroke="#000000" points="1561.8753,-122 1458.1247,-122 1458.1247,-86 1561.8753,-86 1561.8753,-122"/>
<text text-anchor="middle" x="1510" y="-99.8" font-family="Times,serif" font-size="14.00" fill="#000000">EventFilterPipe</text>
</g>
<!-- EventFilterPipe&#45;&gt;EventModule -->
<g id="edge3" class="edge">
<title>EventFilterPipe&#45;&gt;EventModule</title>
<path fill="none" stroke="#000000" d="M1510,-122.1061C1510,-141.3391 1510,-169 1510,-169 1510,-169 1166.2758,-169 1166.2758,-169"/>
<polygon fill="#000000" stroke="#000000" points="1166.2759,-165.5001 1156.2758,-169 1166.2758,-172.5001 1166.2759,-165.5001"/>
</g>
<!-- CommonModule -->
<g id="node5" class="node">
<title>CommonModule</title>
<polygon fill="#8dd3c7" stroke="#000000" points="1433.6681,-122 1430.6681,-126 1409.6681,-126 1406.6681,-122 1322.3319,-122 1322.3319,-86 1433.6681,-86 1433.6681,-122"/>
<text text-anchor="middle" x="1378" y="-99.8" font-family="Times,serif" font-size="14.00" fill="#000000">CommonModule</text>
</g>
<!-- CommonModule&#45;&gt;EventModule -->
<g id="edge4" class="edge">
<title>CommonModule&#45;&gt;EventModule</title>
<path fill="none" stroke="#000000" d="M1378,-122.0225C1378,-139.3734 1378,-163 1378,-163 1378,-163 1166.3761,-163 1166.3761,-163"/>
<polygon fill="#000000" stroke="#000000" points="1166.3761,-159.5001 1156.3761,-163 1166.376,-166.5001 1166.3761,-159.5001"/>
</g>
<!-- SharedModule -->
<g id="node6" class="node">
<title>SharedModule</title>
<polygon fill="#8dd3c7" stroke="#000000" points="1304.4231,-122 1301.4231,-126 1280.4231,-126 1277.4231,-122 1205.5769,-122 1205.5769,-86 1304.4231,-86 1304.4231,-122"/>
<text text-anchor="middle" x="1255" y="-99.8" font-family="Times,serif" font-size="14.00" fill="#000000">SharedModule</text>
</g>
<!-- SharedModule&#45;&gt;EventModule -->
<g id="edge5" class="edge">
<title>SharedModule&#45;&gt;EventModule</title>
<path fill="none" stroke="#000000" d="M1255,-122.2396C1255,-137.5706 1255,-157 1255,-157 1255,-157 1166.2776,-157 1166.2776,-157"/>
<polygon fill="#000000" stroke="#000000" points="1166.2776,-153.5001 1156.2776,-157 1166.2775,-160.5001 1166.2776,-153.5001"/>
</g>
<!-- NativeScriptHttpModule -->
<g id="node7" class="node">
<title>NativeScriptHttpModule</title>
<polygon fill="#8dd3c7" stroke="#000000" points="1187.6937,-122 1184.6937,-126 1163.6937,-126 1160.6937,-122 1032.3063,-122 1032.3063,-86 1187.6937,-86 1187.6937,-122"/>
<text text-anchor="middle" x="1110" y="-99.8" font-family="Times,serif" font-size="14.00" fill="#000000">NativeScriptHttpModule</text>
</g>
<!-- NativeScriptHttpModule&#45;&gt;EventModule -->
<g id="edge6" class="edge">
<title>NativeScriptHttpModule&#45;&gt;EventModule</title>
<path fill="none" stroke="#000000" d="M1110,-122.1061C1110,-122.1061 1110,-140.991 1110,-140.991"/>
<polygon fill="#000000" stroke="#000000" points="1106.5001,-140.9909 1110,-150.991 1113.5001,-140.991 1106.5001,-140.9909"/>
</g>
<!-- NativeScriptModule -->
<g id="node8" class="node">
<title>NativeScriptModule</title>
<polygon fill="#8dd3c7" stroke="#000000" points="1014.3062,-122 1011.3062,-126 990.3062,-126 987.3062,-122 883.6938,-122 883.6938,-86 1014.3062,-86 1014.3062,-122"/>
<text text-anchor="middle" x="949" y="-99.8" font-family="Times,serif" font-size="14.00" fill="#000000">NativeScriptModule</text>
</g>
<!-- NativeScriptModule&#45;&gt;EventModule -->
<g id="edge7" class="edge">
<title>NativeScriptModule&#45;&gt;EventModule</title>
<path fill="none" stroke="#000000" d="M949,-122.2396C949,-137.5706 949,-157 949,-157 949,-157 1053.8639,-157 1053.8639,-157"/>
<polygon fill="#000000" stroke="#000000" points="1053.8639,-160.5001 1063.8639,-157 1053.8638,-153.5001 1053.8639,-160.5001"/>
</g>
<!-- NativeScriptFormsModule -->
<g id="node9" class="node">
<title>NativeScriptFormsModule</title>
<polygon fill="#8dd3c7" stroke="#000000" points="866.0842,-122 863.0842,-126 842.0842,-126 839.0842,-122 699.9158,-122 699.9158,-86 866.0842,-86 866.0842,-122"/>
<text text-anchor="middle" x="783" y="-99.8" font-family="Times,serif" font-size="14.00" fill="#000000">NativeScriptFormsModule</text>
</g>
<!-- NativeScriptFormsModule&#45;&gt;EventModule -->
<g id="edge8" class="edge">
<title>NativeScriptFormsModule&#45;&gt;EventModule</title>
<path fill="none" stroke="#000000" d="M783,-122.0225C783,-139.3734 783,-163 783,-163 783,-163 1053.8424,-163 1053.8424,-163"/>
<polygon fill="#000000" stroke="#000000" points="1053.8425,-166.5001 1063.8424,-163 1053.8424,-159.5001 1053.8425,-166.5001"/>
</g>
<!-- NativeScriptUIDataFormModule -->
<g id="node10" class="node">
<title>NativeScriptUIDataFormModule</title>
<polygon fill="#8dd3c7" stroke="#000000" points="681.8333,-122 678.8333,-126 657.8333,-126 654.8333,-122 480.1667,-122 480.1667,-86 681.8333,-86 681.8333,-122"/>
<text text-anchor="middle" x="581" y="-99.8" font-family="Times,serif" font-size="14.00" fill="#000000">NativeScriptUIDataFormModule</text>
</g>
<!-- NativeScriptUIDataFormModule&#45;&gt;EventModule -->
<g id="edge9" class="edge">
<title>NativeScriptUIDataFormModule&#45;&gt;EventModule</title>
<path fill="none" stroke="#000000" d="M581,-122.1061C581,-141.3391 581,-169 581,-169 581,-169 1053.5184,-169 1053.5184,-169"/>
<polygon fill="#000000" stroke="#000000" points="1053.5184,-172.5001 1063.5184,-169 1053.5184,-165.5001 1053.5184,-172.5001"/>
</g>
<!-- NativeScriptRouterModule -->
<g id="node11" class="node">
<title>NativeScriptRouterModule</title>
<polygon fill="#8dd3c7" stroke="#000000" points="462.4087,-122 459.4087,-126 438.4087,-126 435.4087,-122 293.5913,-122 293.5913,-86 462.4087,-86 462.4087,-122"/>
<text text-anchor="middle" x="378" y="-99.8" font-family="Times,serif" font-size="14.00" fill="#000000">NativeScriptRouterModule</text>
</g>
<!-- NativeScriptRouterModule&#45;&gt;EventModule -->
<g id="edge10" class="edge">
<title>NativeScriptRouterModule&#45;&gt;EventModule</title>
<path fill="none" stroke="#000000" d="M378,-122.2843C378,-143.3211 378,-175 378,-175 378,-175 1053.6548,-175 1053.6548,-175"/>
<polygon fill="#000000" stroke="#000000" points="1053.6548,-178.5001 1063.6548,-175 1053.6548,-171.5001 1053.6548,-178.5001"/>
</g>
<!-- NativeScriptRouterModule.forChild(args) -->
<g id="node12" class="node">
<title>NativeScriptRouterModule.forChild(args)</title>
<polygon fill="#8dd3c7" stroke="#000000" points="275.9882,-122 272.9882,-126 251.9882,-126 248.9882,-122 24.0118,-122 24.0118,-86 275.9882,-86 275.9882,-122"/>
<text text-anchor="middle" x="150" y="-99.8" font-family="Times,serif" font-size="14.00" fill="#000000">NativeScriptRouterModule.forChild(args)</text>
</g>
<!-- NativeScriptRouterModule.forChild(args)&#45;&gt;EventModule -->
<g id="edge11" class="edge">
<title>NativeScriptRouterModule.forChild(args)&#45;&gt;EventModule</title>
<path fill="none" stroke="#000000" d="M150,-122.0908C150,-145.1328 150,-182 150,-182 150,-182 1053.6972,-182 1053.6972,-182"/>
<polygon fill="#000000" stroke="#000000" points="1053.6972,-185.5001 1063.6972,-182 1053.6972,-178.5001 1053.6972,-185.5001"/>
</g>
</g>
</svg>
