<?xml version="1.0" encoding="UTF-8" standalone="no"?>
<!DOCTYPE svg PUBLIC "-//W3C//DTD SVG 1.1//EN"
 "http://www.w3.org/Graphics/SVG/1.1/DTD/svg11.dtd">
<!-- Generated by graphviz version 2.40.1 (20161225.0304)
 -->
<!-- Title: dependencies Pages: 1 -->
<svg width="2122pt" height="211pt"
 viewBox="0.00 0.00 2122.00 211.00" xmlns="http://www.w3.org/2000/svg" xmlns:xlink="http://www.w3.org/1999/xlink">
<g id="graph0" class="graph" transform="scale(1 1) rotate(0) translate(4 207)">
<title>dependencies</title>
<polygon fill="#ffffff" stroke="transparent" points="-4,4 -4,-207 2118,-207 2118,4 -4,4"/>
<text text-anchor="start" x="1036.0091" y="-42.4" font-family="sans-serif" font-weight="bold" font-size="14.00" fill="#000000">Legend</text>
<polygon fill="#ffffb3" stroke="transparent" points="823,-10 823,-30 843,-30 843,-10 823,-10"/>
<text text-anchor="start" x="846.629" y="-15.4" font-family="sans-serif" font-size="14.00" fill="#000000"> &#160;Declarations</text>
<polygon fill="#8dd3c7" stroke="transparent" points="936,-10 936,-30 956,-30 956,-10 936,-10"/>
<text text-anchor="start" x="959.7251" y="-15.4" font-family="sans-serif" font-size="14.00" fill="#000000"> &#160;Module</text>
<polygon fill="#80b1d3" stroke="transparent" points="1022,-10 1022,-30 1042,-30 1042,-10 1022,-10"/>
<text text-anchor="start" x="1045.7812" y="-15.4" font-family="sans-serif" font-size="14.00" fill="#000000"> &#160;Bootstrap</text>
<polygon fill="#fdb462" stroke="transparent" points="1119,-10 1119,-30 1139,-30 1139,-10 1119,-10"/>
<text text-anchor="start" x="1142.6732" y="-15.4" font-family="sans-serif" font-size="14.00" fill="#000000"> &#160;Providers</text>
<polygon fill="#fb8072" stroke="transparent" points="1215,-10 1215,-30 1235,-30 1235,-10 1215,-10"/>
<text text-anchor="start" x="1238.7258" y="-15.4" font-family="sans-serif" font-size="14.00" fill="#000000"> &#160;Exports</text>
<g id="clust1" class="cluster">
<title>cluster_AbsenceModule</title>
<polygon fill="none" stroke="#000000" stroke-dasharray="1,5" points="8,-70 8,-195 2106,-195 2106,-70 8,-70"/>
</g>
<g id="clust2" class="cluster">
<title>cluster_AbsenceModule_declarations</title>
<polygon fill="none" stroke="#000000" points="1566,-78 1566,-130 2098,-130 2098,-78 1566,-78"/>
</g>
<g id="clust6" class="cluster">
<title>cluster_AbsenceModule_imports</title>
<polygon fill="none" stroke="#000000" points="132,-78 132,-130 1558,-130 1558,-78 132,-78"/>
</g>
<g id="clust9" class="cluster">
<title>cluster_AbsenceModule_providers</title>
<polygon fill="none" stroke="#000000" points="16,-78 16,-130 124,-130 124,-78 16,-78"/>
</g>
<!-- AbsenceOverviewComponent -->
<g id="node1" class="node">
<title>AbsenceOverviewComponent</title>
<polygon fill="#ffffb3" stroke="#000000" points="2090.2212,-122 1905.7788,-122 1905.7788,-86 2090.2212,-86 2090.2212,-122"/>
<text text-anchor="middle" x="1998" y="-99.8" font-family="Times,serif" font-size="14.00" fill="#000000">AbsenceOverviewComponent</text>
</g>
<!-- AbsenceModule -->
<g id="node4" class="node">
<title>AbsenceModule</title>
<polygon fill="#8dd3c7" stroke="#000000" points="1198.7451,-187 1195.7451,-191 1174.7451,-191 1171.7451,-187 1091.2549,-187 1091.2549,-151 1198.7451,-151 1198.7451,-187"/>
<text text-anchor="middle" x="1145" y="-164.8" font-family="Times,serif" font-size="14.00" fill="#000000">AbsenceModule</text>
</g>
<!-- AbsenceOverviewComponent&#45;&gt;AbsenceModule -->
<g id="edge1" class="edge">
<title>AbsenceOverviewComponent&#45;&gt;AbsenceModule</title>
<path fill="none" stroke="#000000" d="M1998,-122.0908C1998,-145.1328 1998,-182 1998,-182 1998,-182 1209.0061,-182 1209.0061,-182"/>
<polygon fill="#000000" stroke="#000000" points="1209.0061,-178.5001 1199.0061,-182 1209.0061,-185.5001 1209.0061,-178.5001"/>
</g>
<!-- AbsenceRegisterComponent -->
<g id="node2" class="node">
<title>AbsenceRegisterComponent</title>
<polygon fill="#ffffb3" stroke="#000000" points="1888.1797,-122 1711.8203,-122 1711.8203,-86 1888.1797,-86 1888.1797,-122"/>
<text text-anchor="middle" x="1800" y="-99.8" font-family="Times,serif" font-size="14.00" fill="#000000">AbsenceRegisterComponent</text>
</g>
<!-- AbsenceRegisterComponent&#45;&gt;AbsenceModule -->
<g id="edge2" class="edge">
<title>AbsenceRegisterComponent&#45;&gt;AbsenceModule</title>
<path fill="none" stroke="#000000" d="M1800,-122.2843C1800,-143.3211 1800,-175 1800,-175 1800,-175 1208.8797,-175 1208.8797,-175"/>
<polygon fill="#000000" stroke="#000000" points="1208.8798,-171.5001 1198.8797,-175 1208.8797,-178.5001 1208.8798,-171.5001"/>
</g>
<!-- AbsenceFilterPipe -->
<g id="node3" class="node">
<title>AbsenceFilterPipe</title>
<polygon fill="#ffffb3" stroke="#000000" points="1693.9131,-122 1574.0869,-122 1574.0869,-86 1693.9131,-86 1693.9131,-122"/>
<text text-anchor="middle" x="1634" y="-99.8" font-family="Times,serif" font-size="14.00" fill="#000000">AbsenceFilterPipe</text>
</g>
<!-- AbsenceFilterPipe&#45;&gt;AbsenceModule -->
<g id="edge3" class="edge">
<title>AbsenceFilterPipe&#45;&gt;AbsenceModule</title>
<path fill="none" stroke="#000000" d="M1634,-122.1061C1634,-141.3391 1634,-169 1634,-169 1634,-169 1209.1999,-169 1209.1999,-169"/>
<polygon fill="#000000" stroke="#000000" points="1209.2,-165.5001 1199.1999,-169 1209.1999,-172.5001 1209.2,-165.5001"/>
</g>
<!-- CommonModule -->
<g id="node5" class="node">
<title>CommonModule</title>
<polygon fill="#8dd3c7" stroke="#000000" points="1549.6681,-122 1546.6681,-126 1525.6681,-126 1522.6681,-122 1438.3319,-122 1438.3319,-86 1549.6681,-86 1549.6681,-122"/>
<text text-anchor="middle" x="1494" y="-99.8" font-family="Times,serif" font-size="14.00" fill="#000000">CommonModule</text>
</g>
<!-- CommonModule&#45;&gt;AbsenceModule -->
<g id="edge4" class="edge">
<title>CommonModule&#45;&gt;AbsenceModule</title>
<path fill="none" stroke="#000000" d="M1494,-122.0225C1494,-139.3734 1494,-163 1494,-163 1494,-163 1208.7664,-163 1208.7664,-163"/>
<polygon fill="#000000" stroke="#000000" points="1208.7664,-159.5001 1198.7664,-163 1208.7664,-166.5001 1208.7664,-159.5001"/>
</g>
<!-- SharedModule -->
<g id="node6" class="node">
<title>SharedModule</title>
<polygon fill="#8dd3c7" stroke="#000000" points="1420.4231,-122 1417.4231,-126 1396.4231,-126 1393.4231,-122 1321.5769,-122 1321.5769,-86 1420.4231,-86 1420.4231,-122"/>
<text text-anchor="middle" x="1371" y="-99.8" font-family="Times,serif" font-size="14.00" fill="#000000">SharedModule</text>
</g>
<!-- SharedModule&#45;&gt;AbsenceModule -->
<g id="edge5" class="edge">
<title>SharedModule&#45;&gt;AbsenceModule</title>
<path fill="none" stroke="#000000" d="M1371,-122.2396C1371,-137.5706 1371,-157 1371,-157 1371,-157 1208.8455,-157 1208.8455,-157"/>
<polygon fill="#000000" stroke="#000000" points="1208.8455,-153.5001 1198.8455,-157 1208.8455,-160.5001 1208.8455,-153.5001"/>
</g>
<!-- NativeScriptHttpModule -->
<g id="node7" class="node">
<title>NativeScriptHttpModule</title>
<polygon fill="#8dd3c7" stroke="#000000" points="1303.6937,-122 1300.6937,-126 1279.6937,-126 1276.6937,-122 1148.3063,-122 1148.3063,-86 1303.6937,-86 1303.6937,-122"/>
<text text-anchor="middle" x="1226" y="-99.8" font-family="Times,serif" font-size="14.00" fill="#000000">NativeScriptHttpModule</text>
</g>
<!-- NativeScriptHttpModule&#45;&gt;AbsenceModule -->
<g id="edge6" class="edge">
<title>NativeScriptHttpModule&#45;&gt;AbsenceModule</title>
<path fill="none" stroke="#000000" d="M1173.6378,-122.1061C1173.6378,-122.1061 1173.6378,-140.991 1173.6378,-140.991"/>
<polygon fill="#000000" stroke="#000000" points="1170.1379,-140.9909 1173.6378,-150.991 1177.1379,-140.991 1170.1379,-140.9909"/>
</g>
<!-- NativeScriptModule -->
<g id="node8" class="node">
<title>NativeScriptModule</title>
<polygon fill="#8dd3c7" stroke="#000000" points="1130.3062,-122 1127.3062,-126 1106.3062,-126 1103.3062,-122 999.6938,-122 999.6938,-86 1130.3062,-86 1130.3062,-122"/>
<text text-anchor="middle" x="1065" y="-99.8" font-family="Times,serif" font-size="14.00" fill="#000000">NativeScriptModule</text>
</g>
<!-- NativeScriptModule&#45;&gt;AbsenceModule -->
<g id="edge7" class="edge">
<title>NativeScriptModule&#45;&gt;AbsenceModule</title>
<path fill="none" stroke="#000000" d="M1110.6403,-122.1061C1110.6403,-122.1061 1110.6403,-140.991 1110.6403,-140.991"/>
<polygon fill="#000000" stroke="#000000" points="1107.1403,-140.9909 1110.6403,-150.991 1114.1403,-140.991 1107.1403,-140.9909"/>
</g>
<!-- NativeScriptFormsModule -->
<g id="node9" class="node">
<title>NativeScriptFormsModule</title>
<polygon fill="#8dd3c7" stroke="#000000" points="982.0842,-122 979.0842,-126 958.0842,-126 955.0842,-122 815.9158,-122 815.9158,-86 982.0842,-86 982.0842,-122"/>
<text text-anchor="middle" x="899" y="-99.8" font-family="Times,serif" font-size="14.00" fill="#000000">NativeScriptFormsModule</text>
</g>
<!-- NativeScriptFormsModule&#45;&gt;AbsenceModule -->
<g id="edge8" class="edge">
<title>NativeScriptFormsModule&#45;&gt;AbsenceModule</title>
<path fill="none" stroke="#000000" d="M899,-122.2396C899,-137.5706 899,-157 899,-157 899,-157 1081.0143,-157 1081.0143,-157"/>
<polygon fill="#000000" stroke="#000000" points="1081.0143,-160.5001 1091.0143,-157 1081.0142,-153.5001 1081.0143,-160.5001"/>
</g>
<!-- NativeScriptUIDataFormModule -->
<g id="node10" class="node">
<title>NativeScriptUIDataFormModule</title>
<polygon fill="#8dd3c7" stroke="#000000" points="797.8333,-122 794.8333,-126 773.8333,-126 770.8333,-122 596.1667,-122 596.1667,-86 797.8333,-86 797.8333,-122"/>
<text text-anchor="middle" x="697" y="-99.8" font-family="Times,serif" font-size="14.00" fill="#000000">NativeScriptUIDataFormModule</text>
</g>
<!-- NativeScriptUIDataFormModule&#45;&gt;AbsenceModule -->
<g id="edge9" class="edge">
<title>NativeScriptUIDataFormModule&#45;&gt;AbsenceModule</title>
<path fill="none" stroke="#000000" d="M697,-122.0225C697,-139.3734 697,-163 697,-163 697,-163 1080.9607,-163 1080.9607,-163"/>
<polygon fill="#000000" stroke="#000000" points="1080.9608,-166.5001 1090.9607,-163 1080.9607,-159.5001 1080.9608,-166.5001"/>
</g>
<!-- NativeScriptRouterModule -->
<g id="node11" class="node">
<title>NativeScriptRouterModule</title>
<polygon fill="#8dd3c7" stroke="#000000" points="578.4087,-122 575.4087,-126 554.4087,-126 551.4087,-122 409.5913,-122 409.5913,-86 578.4087,-86 578.4087,-122"/>
<text text-anchor="middle" x="494" y="-99.8" font-family="Times,serif" font-size="14.00" fill="#000000">NativeScriptRouterModule</text>
</g>
<!-- NativeScriptRouterModule&#45;&gt;AbsenceModule -->
<g id="edge10" class="edge">
<title>NativeScriptRouterModule&#45;&gt;AbsenceModule</title>
<path fill="none" stroke="#000000" d="M494,-122.1061C494,-141.3391 494,-169 494,-169 494,-169 1081.1721,-169 1081.1721,-169"/>
<polygon fill="#000000" stroke="#000000" points="1081.1721,-172.5001 1091.1721,-169 1081.172,-165.5001 1081.1721,-172.5001"/>
</g>
<!-- NativeScriptRouterModule.forChild(args) -->
<g id="node12" class="node">
<title>NativeScriptRouterModule.forChild(args)</title>
<polygon fill="#8dd3c7" stroke="#000000" points="391.9882,-122 388.9882,-126 367.9882,-126 364.9882,-122 140.0118,-122 140.0118,-86 391.9882,-86 391.9882,-122"/>
<text text-anchor="middle" x="266" y="-99.8" font-family="Times,serif" font-size="14.00" fill="#000000">NativeScriptRouterModule.forChild(args)</text>
</g>
<!-- NativeScriptRouterModule.forChild(args)&#45;&gt;AbsenceModule -->
<g id="edge11" class="edge">
<title>NativeScriptRouterModule.forChild(args)&#45;&gt;AbsenceModule</title>
<path fill="none" stroke="#000000" d="M266,-122.2843C266,-143.3211 266,-175 266,-175 266,-175 1081.0083,-175 1081.0083,-175"/>
<polygon fill="#000000" stroke="#000000" points="1081.0084,-178.5001 1091.0083,-175 1081.0083,-171.5001 1081.0084,-178.5001"/>
</g>
<!-- DatePipe -->
<g id="node13" class="node">
<title>DatePipe</title>
<ellipse fill="#fdb462" stroke="#000000" cx="70" cy="-104" rx="46.3643" ry="18"/>
<text text-anchor="middle" x="70" y="-99.8" font-family="Times,serif" font-size="14.00" fill="#000000">DatePipe</text>
</g>
<!-- DatePipe&#45;&gt;AbsenceModule -->
<g id="edge12" class="edge">
<title>DatePipe&#45;&gt;AbsenceModule</title>
<path fill="none" stroke="#000000" d="M70,-122.0908C70,-145.1328 70,-182 70,-182 70,-182 1080.9539,-182 1080.9539,-182"/>
<polygon fill="#000000" stroke="#000000" points="1080.9539,-185.5001 1090.9539,-182 1080.9538,-178.5001 1080.9539,-185.5001"/>
</g>
</g>
</svg>
