<?xml version="1.0" encoding="UTF-8" standalone="no"?>
<!DOCTYPE svg PUBLIC "-//W3C//DTD SVG 1.1//EN"
 "http://www.w3.org/Graphics/SVG/1.1/DTD/svg11.dtd">
<!-- Generated by graphviz version 2.40.1 (20161225.0304)
 -->
<!-- Title: dependencies Pages: 1 -->
<svg width="2086pt" height="284pt"
 viewBox="0.00 0.00 2086.00 284.00" xmlns="http://www.w3.org/2000/svg" xmlns:xlink="http://www.w3.org/1999/xlink">
<g id="graph0" class="graph" transform="scale(1 1) rotate(0) translate(4 280)">
<title>dependencies</title>
<polygon fill="#ffffff" stroke="transparent" points="-4,4 -4,-280 2082,-280 2082,4 -4,4"/>
<text text-anchor="start" x="1018.0091" y="-42.4" font-family="sans-serif" font-weight="bold" font-size="14.00" fill="#000000">Legend</text>
<polygon fill="#ffffb3" stroke="transparent" points="805,-10 805,-30 825,-30 825,-10 805,-10"/>
<text text-anchor="start" x="828.629" y="-15.4" font-family="sans-serif" font-size="14.00" fill="#000000"> &#160;Declarations</text>
<polygon fill="#8dd3c7" stroke="transparent" points="918,-10 918,-30 938,-30 938,-10 918,-10"/>
<text text-anchor="start" x="941.7251" y="-15.4" font-family="sans-serif" font-size="14.00" fill="#000000"> &#160;Module</text>
<polygon fill="#80b1d3" stroke="transparent" points="1004,-10 1004,-30 1024,-30 1024,-10 1004,-10"/>
<text text-anchor="start" x="1027.7812" y="-15.4" font-family="sans-serif" font-size="14.00" fill="#000000"> &#160;Bootstrap</text>
<polygon fill="#fdb462" stroke="transparent" points="1101,-10 1101,-30 1121,-30 1121,-10 1101,-10"/>
<text text-anchor="start" x="1124.6732" y="-15.4" font-family="sans-serif" font-size="14.00" fill="#000000"> &#160;Providers</text>
<polygon fill="#fb8072" stroke="transparent" points="1197,-10 1197,-30 1217,-30 1217,-10 1197,-10"/>
<text text-anchor="start" x="1220.7258" y="-15.4" font-family="sans-serif" font-size="14.00" fill="#000000"> &#160;Exports</text>
<g id="clust1" class="cluster">
<title>cluster_SharedModule</title>
<polygon fill="none" stroke="#000000" stroke-dasharray="1,5" points="8,-70 8,-268 2070,-268 2070,-70 8,-70"/>
</g>
<g id="clust2" class="cluster">
<title>cluster_SharedModule_declarations</title>
<polygon fill="none" stroke="#000000" points="877,-78 877,-130 2062,-130 2062,-78 877,-78"/>
</g>
<g id="clust10" class="cluster">
<title>cluster_SharedModule_imports</title>
<polygon fill="none" stroke="#000000" points="16,-78 16,-130 869,-130 869,-78 16,-78"/>
</g>
<g id="clust11" class="cluster">
<title>cluster_SharedModule_exports</title>
<polygon fill="none" stroke="#000000" points="530,-208 530,-260 1524,-260 1524,-208 530,-208"/>
</g>
<!-- SIDEDRAWER_DIRECTIVES -->
<g id="node1" class="node">
<title>SIDEDRAWER_DIRECTIVES</title>
<polygon fill="#ffffb3" stroke="#000000" points="2054.4044,-122 1857.5956,-122 1857.5956,-86 2054.4044,-86 2054.4044,-122"/>
<text text-anchor="middle" x="1956" y="-99.8" font-family="Times,serif" font-size="14.00" fill="#000000">SIDEDRAWER_DIRECTIVES</text>
</g>
<!-- SharedModule -->
<g id="node8" class="node">
<title>SharedModule</title>
<polygon fill="#8dd3c7" stroke="#000000" points="1049.4231,-187 1046.4231,-191 1025.4231,-191 1022.4231,-187 950.5769,-187 950.5769,-151 1049.4231,-151 1049.4231,-187"/>
<text text-anchor="middle" x="1000" y="-164.8" font-family="Times,serif" font-size="14.00" fill="#000000">SharedModule</text>
</g>
<!-- SIDEDRAWER_DIRECTIVES&#45;&gt;SharedModule -->
<g id="edge1" class="edge">
<title>SIDEDRAWER_DIRECTIVES&#45;&gt;SharedModule</title>
<path fill="none" stroke="#000000" d="M1956,-122.0267C1956,-142.7672 1956,-174 1956,-174 1956,-174 1059.3856,-174 1059.3856,-174"/>
<polygon fill="#000000" stroke="#000000" points="1059.3856,-170.5001 1049.3856,-174 1059.3856,-177.5001 1059.3856,-170.5001"/>
</g>
<!-- SideDrawerComponent -->
<g id="node2" class="node">
<title>SideDrawerComponent</title>
<polygon fill="#ffffb3" stroke="#000000" points="1840.1839,-122 1691.8161,-122 1691.8161,-86 1840.1839,-86 1840.1839,-122"/>
<text text-anchor="middle" x="1766" y="-99.8" font-family="Times,serif" font-size="14.00" fill="#000000">SideDrawerComponent</text>
</g>
<!-- SideDrawerComponent&#45;&gt;SharedModule -->
<g id="edge2" class="edge">
<title>SideDrawerComponent&#45;&gt;SharedModule</title>
<path fill="none" stroke="#000000" d="M1766,-122.1061C1766,-141.3391 1766,-169 1766,-169 1766,-169 1059.3752,-169 1059.3752,-169"/>
<polygon fill="#000000" stroke="#000000" points="1059.3753,-165.5001 1049.3752,-169 1059.3752,-172.5001 1059.3753,-165.5001"/>
</g>
<!-- BorderlessBtnDirective -->
<g id="node3" class="node">
<title>BorderlessBtnDirective</title>
<polygon fill="#ffffb3" stroke="#000000" points="1674.1769,-122 1525.8231,-122 1525.8231,-86 1674.1769,-86 1674.1769,-122"/>
<text text-anchor="middle" x="1600" y="-99.8" font-family="Times,serif" font-size="14.00" fill="#000000">BorderlessBtnDirective</text>
</g>
<!-- BorderlessBtnDirective&#45;&gt;SharedModule -->
<g id="edge3" class="edge">
<title>BorderlessBtnDirective&#45;&gt;SharedModule</title>
<path fill="none" stroke="#000000" d="M1600,-122.302C1600,-140.2699 1600,-165 1600,-165 1600,-165 1059.3555,-165 1059.3555,-165"/>
<polygon fill="#000000" stroke="#000000" points="1059.3555,-161.5001 1049.3555,-165 1059.3554,-168.5001 1059.3555,-161.5001"/>
</g>
<!-- BusyIndicatorComponent -->
<g id="node4" class="node">
<title>BusyIndicatorComponent</title>
<polygon fill="#ffffb3" stroke="#000000" points="1508.1456,-122 1347.8544,-122 1347.8544,-86 1508.1456,-86 1508.1456,-122"/>
<text text-anchor="middle" x="1428" y="-99.8" font-family="Times,serif" font-size="14.00" fill="#000000">BusyIndicatorComponent</text>
</g>
<!-- BusyIndicatorComponent&#45;&gt;SharedModule -->
<g id="edge4" class="edge">
<title>BusyIndicatorComponent&#45;&gt;SharedModule</title>
<path fill="none" stroke="#000000" d="M1355.9178,-122.027C1355.9178,-138.3976 1355.9178,-160 1355.9178,-160 1355.9178,-160 1059.4888,-160 1059.4888,-160"/>
<polygon fill="#000000" stroke="#000000" points="1059.4889,-156.5001 1049.4888,-160 1059.4888,-163.5001 1059.4889,-156.5001"/>
</g>
<!-- LISTVIEW_DIRECTIVES -->
<g id="node5" class="node">
<title>LISTVIEW_DIRECTIVES</title>
<polygon fill="#ffffb3" stroke="#000000" points="1329.231,-122 1158.769,-122 1158.769,-86 1329.231,-86 1329.231,-122"/>
<text text-anchor="middle" x="1244" y="-99.8" font-family="Times,serif" font-size="14.00" fill="#000000">LISTVIEW_DIRECTIVES</text>
</g>
<!-- LISTVIEW_DIRECTIVES&#45;&gt;SharedModule -->
<g id="edge5" class="edge">
<title>LISTVIEW_DIRECTIVES&#45;&gt;SharedModule</title>
<path fill="none" stroke="#000000" d="M1167.3536,-122.1871C1167.3536,-137.1824 1167.3536,-156 1167.3536,-156 1167.3536,-156 1059.3064,-156 1059.3064,-156"/>
<polygon fill="#000000" stroke="#000000" points="1059.3065,-152.5001 1049.3064,-156 1059.3064,-159.5001 1059.3065,-152.5001"/>
</g>
<!-- NavigationComponent -->
<g id="node6" class="node">
<title>NavigationComponent</title>
<polygon fill="#ffffb3" stroke="#000000" points="1140.5407,-122 997.4593,-122 997.4593,-86 1140.5407,-86 1140.5407,-122"/>
<text text-anchor="middle" x="1069" y="-99.8" font-family="Times,serif" font-size="14.00" fill="#000000">NavigationComponent</text>
</g>
<!-- NavigationComponent&#45;&gt;SharedModule -->
<g id="edge6" class="edge">
<title>NavigationComponent&#45;&gt;SharedModule</title>
<path fill="none" stroke="#000000" d="M1023.2206,-122.1061C1023.2206,-122.1061 1023.2206,-140.991 1023.2206,-140.991"/>
<polygon fill="#000000" stroke="#000000" points="1019.7206,-140.9909 1023.2206,-150.991 1026.7206,-140.991 1019.7206,-140.9909"/>
</g>
<!-- AutoGridPipe -->
<g id="node7" class="node">
<title>AutoGridPipe</title>
<polygon fill="#ffffb3" stroke="#000000" points="979.0439,-122 884.9561,-122 884.9561,-86 979.0439,-86 979.0439,-122"/>
<text text-anchor="middle" x="932" y="-99.8" font-family="Times,serif" font-size="14.00" fill="#000000">AutoGridPipe</text>
</g>
<!-- AutoGridPipe&#45;&gt;SharedModule -->
<g id="edge7" class="edge">
<title>AutoGridPipe&#45;&gt;SharedModule</title>
<path fill="none" stroke="#000000" d="M965.0302,-122.1061C965.0302,-122.1061 965.0302,-140.991 965.0302,-140.991"/>
<polygon fill="#000000" stroke="#000000" points="961.5302,-140.9909 965.0302,-150.991 968.5302,-140.991 961.5302,-140.9909"/>
</g>
<!-- SideDrawerComponent  -->
<g id="node14" class="node">
<title>SideDrawerComponent </title>
<polygon fill="#fb8072" stroke="#000000" points="1515.6841,-252 1364.3159,-252 1364.3159,-216 1515.6841,-216 1515.6841,-252"/>
<text text-anchor="middle" x="1440" y="-229.8" font-family="Times,serif" font-size="14.00" fill="#000000">SideDrawerComponent </text>
</g>
<!-- SharedModule&#45;&gt;SideDrawerComponent  -->
<g id="edge13" class="edge">
<title>SharedModule&#45;&gt;SideDrawerComponent </title>
<path fill="none" stroke="#000000" stroke-dasharray="5,2" d="M1049.6176,-178C1163.9558,-178 1436.2404,-178 1436.2404,-178 1436.2404,-178 1436.2404,-205.973 1436.2404,-205.973"/>
<polygon fill="#000000" stroke="#000000" points="1432.7404,-205.973 1436.2404,-215.973 1439.7404,-205.973 1432.7404,-205.973"/>
</g>
<!-- BorderlessBtnDirective  -->
<g id="node15" class="node">
<title>BorderlessBtnDirective </title>
<polygon fill="#fb8072" stroke="#000000" points="1345.6771,-252 1194.3229,-252 1194.3229,-216 1345.6771,-216 1345.6771,-252"/>
<text text-anchor="middle" x="1270" y="-229.8" font-family="Times,serif" font-size="14.00" fill="#000000">BorderlessBtnDirective </text>
</g>
<!-- SharedModule&#45;&gt;BorderlessBtnDirective  -->
<g id="edge14" class="edge">
<title>SharedModule&#45;&gt;BorderlessBtnDirective </title>
<path fill="none" stroke="#000000" stroke-dasharray="5,2" d="M1049.2357,-183C1125.0622,-183 1261.7635,-183 1261.7635,-183 1261.7635,-183 1261.7635,-205.8757 1261.7635,-205.8757"/>
<polygon fill="#000000" stroke="#000000" points="1258.2636,-205.8757 1261.7635,-215.8757 1265.2636,-205.8757 1258.2636,-205.8757"/>
</g>
<!-- BusyIndicatorComponent  -->
<g id="node16" class="node">
<title>BusyIndicatorComponent </title>
<polygon fill="#fb8072" stroke="#000000" points="1176.1453,-252 1011.8547,-252 1011.8547,-216 1176.1453,-216 1176.1453,-252"/>
<text text-anchor="middle" x="1094" y="-229.8" font-family="Times,serif" font-size="14.00" fill="#000000">BusyIndicatorComponent </text>
</g>
<!-- SharedModule&#45;&gt;BusyIndicatorComponent  -->
<g id="edge15" class="edge">
<title>SharedModule&#45;&gt;BusyIndicatorComponent </title>
<path fill="none" stroke="#000000" stroke-dasharray="5,2" d="M1030.5693,-187.1061C1030.5693,-187.1061 1030.5693,-205.991 1030.5693,-205.991"/>
<polygon fill="#000000" stroke="#000000" points="1027.0693,-205.9909 1030.5693,-215.991 1034.0693,-205.991 1027.0693,-205.9909"/>
</g>
<!-- LISTVIEW_DIRECTIVES  -->
<g id="node17" class="node">
<title>LISTVIEW_DIRECTIVES </title>
<polygon fill="#fb8072" stroke="#000000" points="994.231,-252 819.769,-252 819.769,-216 994.231,-216 994.231,-252"/>
<text text-anchor="middle" x="907" y="-229.8" font-family="Times,serif" font-size="14.00" fill="#000000">LISTVIEW_DIRECTIVES </text>
</g>
<!-- SharedModule&#45;&gt;LISTVIEW_DIRECTIVES  -->
<g id="edge16" class="edge">
<title>SharedModule&#45;&gt;LISTVIEW_DIRECTIVES </title>
<path fill="none" stroke="#000000" stroke-dasharray="5,2" d="M972.4522,-187.1061C972.4522,-187.1061 972.4522,-205.991 972.4522,-205.991"/>
<polygon fill="#000000" stroke="#000000" points="968.9522,-205.9909 972.4522,-215.991 975.9522,-205.991 968.9522,-205.9909"/>
</g>
<!-- NavigationComponent  -->
<g id="node18" class="node">
<title>NavigationComponent </title>
<polygon fill="#fb8072" stroke="#000000" points="801.54,-252 654.46,-252 654.46,-216 801.54,-216 801.54,-252"/>
<text text-anchor="middle" x="728" y="-229.8" font-family="Times,serif" font-size="14.00" fill="#000000">NavigationComponent </text>
</g>
<!-- SharedModule&#45;&gt;NavigationComponent  -->
<g id="edge17" class="edge">
<title>SharedModule&#45;&gt;NavigationComponent </title>
<path fill="none" stroke="#000000" stroke-dasharray="5,2" d="M950.6981,-183C884.5666,-183 775.3431,-183 775.3431,-183 775.3431,-183 775.3431,-205.8757 775.3431,-205.8757"/>
<polygon fill="#000000" stroke="#000000" points="771.8432,-205.8757 775.3431,-215.8757 778.8432,-205.8757 771.8432,-205.8757"/>
</g>
<!-- AutoGridPipe  -->
<g id="node19" class="node">
<title>AutoGridPipe </title>
<polygon fill="#fb8072" stroke="#000000" points="636.0428,-252 537.9572,-252 537.9572,-216 636.0428,-216 636.0428,-252"/>
<text text-anchor="middle" x="587" y="-229.8" font-family="Times,serif" font-size="14.00" fill="#000000">AutoGridPipe </text>
</g>
<!-- SharedModule&#45;&gt;AutoGridPipe  -->
<g id="edge18" class="edge">
<title>SharedModule&#45;&gt;AutoGridPipe </title>
<path fill="none" stroke="#000000" stroke-dasharray="5,2" d="M950.5252,-178C844.762,-178 606.2123,-178 606.2123,-178 606.2123,-178 606.2123,-205.973 606.2123,-205.973"/>
<polygon fill="#000000" stroke="#000000" points="602.7124,-205.973 606.2123,-215.973 609.7124,-205.973 602.7124,-205.973"/>
</g>
<!-- CommonModule -->
<g id="node9" class="node">
<title>CommonModule</title>
<polygon fill="#8dd3c7" stroke="#000000" points="860.6681,-122 857.6681,-126 836.6681,-126 833.6681,-122 749.3319,-122 749.3319,-86 860.6681,-86 860.6681,-122"/>
<text text-anchor="middle" x="805" y="-99.8" font-family="Times,serif" font-size="14.00" fill="#000000">CommonModule</text>
</g>
<!-- CommonModule&#45;&gt;SharedModule -->
<g id="edge8" class="edge">
<title>CommonModule&#45;&gt;SharedModule</title>
<path fill="none" stroke="#000000" d="M840.3592,-122.1871C840.3592,-137.1824 840.3592,-156 840.3592,-156 840.3592,-156 940.3637,-156 940.3637,-156"/>
<polygon fill="#000000" stroke="#000000" points="940.3638,-159.5001 950.3637,-156 940.3637,-152.5001 940.3638,-159.5001"/>
</g>
<!-- NativeScriptHttpModule -->
<g id="node10" class="node">
<title>NativeScriptHttpModule</title>
<polygon fill="#8dd3c7" stroke="#000000" points="731.6937,-122 728.6937,-126 707.6937,-126 704.6937,-122 576.3063,-122 576.3063,-86 731.6937,-86 731.6937,-122"/>
<text text-anchor="middle" x="654" y="-99.8" font-family="Times,serif" font-size="14.00" fill="#000000">NativeScriptHttpModule</text>
</g>
<!-- NativeScriptHttpModule&#45;&gt;SharedModule -->
<g id="edge9" class="edge">
<title>NativeScriptHttpModule&#45;&gt;SharedModule</title>
<path fill="none" stroke="#000000" d="M693.0384,-122.027C693.0384,-138.3976 693.0384,-160 693.0384,-160 693.0384,-160 940.6813,-160 940.6813,-160"/>
<polygon fill="#000000" stroke="#000000" points="940.6813,-163.5001 950.6813,-160 940.6813,-156.5001 940.6813,-163.5001"/>
</g>
<!-- NativeScriptModule -->
<g id="node11" class="node">
<title>NativeScriptModule</title>
<polygon fill="#8dd3c7" stroke="#000000" points="558.3062,-122 555.3062,-126 534.3062,-126 531.3062,-122 427.6938,-122 427.6938,-86 558.3062,-86 558.3062,-122"/>
<text text-anchor="middle" x="493" y="-99.8" font-family="Times,serif" font-size="14.00" fill="#000000">NativeScriptModule</text>
</g>
<!-- NativeScriptModule&#45;&gt;SharedModule -->
<g id="edge10" class="edge">
<title>NativeScriptModule&#45;&gt;SharedModule</title>
<path fill="none" stroke="#000000" d="M548.0658,-122.302C548.0658,-140.2699 548.0658,-165 548.0658,-165 548.0658,-165 940.7748,-165 940.7748,-165"/>
<polygon fill="#000000" stroke="#000000" points="940.7748,-168.5001 950.7748,-165 940.7748,-161.5001 940.7748,-168.5001"/>
</g>
<!-- NativeScriptFormsModule -->
<g id="node12" class="node">
<title>NativeScriptFormsModule</title>
<polygon fill="#8dd3c7" stroke="#000000" points="410.0842,-122 407.0842,-126 386.0842,-126 383.0842,-122 243.9158,-122 243.9158,-86 410.0842,-86 410.0842,-122"/>
<text text-anchor="middle" x="327" y="-99.8" font-family="Times,serif" font-size="14.00" fill="#000000">NativeScriptFormsModule</text>
</g>
<!-- NativeScriptFormsModule&#45;&gt;SharedModule -->
<g id="edge11" class="edge">
<title>NativeScriptFormsModule&#45;&gt;SharedModule</title>
<path fill="none" stroke="#000000" d="M327,-122.1061C327,-141.3391 327,-169 327,-169 327,-169 940.7854,-169 940.7854,-169"/>
<polygon fill="#000000" stroke="#000000" points="940.7854,-172.5001 950.7854,-169 940.7853,-165.5001 940.7854,-172.5001"/>
</g>
<!-- NativeScriptUIDataFormModule -->
<g id="node13" class="node">
<title>NativeScriptUIDataFormModule</title>
<polygon fill="#8dd3c7" stroke="#000000" points="225.8333,-122 222.8333,-126 201.8333,-126 198.8333,-122 24.1667,-122 24.1667,-86 225.8333,-86 225.8333,-122"/>
<text text-anchor="middle" x="125" y="-99.8" font-family="Times,serif" font-size="14.00" fill="#000000">NativeScriptUIDataFormModule</text>
</g>
<!-- NativeScriptUIDataFormModule&#45;&gt;SharedModule -->
<g id="edge12" class="edge">
<title>NativeScriptUIDataFormModule&#45;&gt;SharedModule</title>
<path fill="none" stroke="#000000" d="M125,-122.0267C125,-142.7672 125,-174 125,-174 125,-174 940.7657,-174 940.7657,-174"/>
<polygon fill="#000000" stroke="#000000" points="940.7657,-177.5001 950.7657,-174 940.7656,-170.5001 940.7657,-177.5001"/>
</g>
</g>
</svg>
