<?xml version="1.0" encoding="UTF-8" standalone="no"?>
<!DOCTYPE svg PUBLIC "-//W3C//DTD SVG 1.1//EN"
 "http://www.w3.org/Graphics/SVG/1.1/DTD/svg11.dtd">
<!-- Generated by graphviz version 2.40.1 (20161225.0304)
 -->
<!-- Title: dependencies Pages: 1 -->
<svg width="1974pt" height="211pt"
 viewBox="0.00 0.00 1974.00 211.00" xmlns="http://www.w3.org/2000/svg" xmlns:xlink="http://www.w3.org/1999/xlink">
<g id="graph0" class="graph" transform="scale(1 1) rotate(0) translate(4 207)">
<title>dependencies</title>
<polygon fill="#ffffff" stroke="transparent" points="-4,4 -4,-207 1970,-207 1970,4 -4,4"/>
<text text-anchor="start" x="962.0091" y="-42.4" font-family="sans-serif" font-weight="bold" font-size="14.00" fill="#000000">Legend</text>
<polygon fill="#ffffb3" stroke="transparent" points="749,-10 749,-30 769,-30 769,-10 749,-10"/>
<text text-anchor="start" x="772.629" y="-15.4" font-family="sans-serif" font-size="14.00" fill="#000000"> &#160;Declarations</text>
<polygon fill="#8dd3c7" stroke="transparent" points="862,-10 862,-30 882,-30 882,-10 862,-10"/>
<text text-anchor="start" x="885.7251" y="-15.4" font-family="sans-serif" font-size="14.00" fill="#000000"> &#160;Module</text>
<polygon fill="#80b1d3" stroke="transparent" points="948,-10 948,-30 968,-30 968,-10 948,-10"/>
<text text-anchor="start" x="971.7812" y="-15.4" font-family="sans-serif" font-size="14.00" fill="#000000"> &#160;Bootstrap</text>
<polygon fill="#fdb462" stroke="transparent" points="1045,-10 1045,-30 1065,-30 1065,-10 1045,-10"/>
<text text-anchor="start" x="1068.6732" y="-15.4" font-family="sans-serif" font-size="14.00" fill="#000000"> &#160;Providers</text>
<polygon fill="#fb8072" stroke="transparent" points="1141,-10 1141,-30 1161,-30 1161,-10 1141,-10"/>
<text text-anchor="start" x="1164.7258" y="-15.4" font-family="sans-serif" font-size="14.00" fill="#000000"> &#160;Exports</text>
<g id="clust1" class="cluster">
<title>cluster_ParentModule</title>
<polygon fill="none" stroke="#000000" stroke-dasharray="1,5" points="8,-70 8,-195 1958,-195 1958,-70 8,-70"/>
</g>
<g id="clust2" class="cluster">
<title>cluster_ParentModule_declarations</title>
<polygon fill="none" stroke="#000000" points="1450,-78 1450,-130 1950,-130 1950,-78 1450,-78"/>
</g>
<g id="clust6" class="cluster">
<title>cluster_ParentModule_imports</title>
<polygon fill="none" stroke="#000000" points="16,-78 16,-130 1442,-130 1442,-78 16,-78"/>
</g>
<!-- ParentRegisterComponent -->
<g id="node1" class="node">
<title>ParentRegisterComponent</title>
<polygon fill="#ffffb3" stroke="#000000" points="1941.7478,-122 1778.2522,-122 1778.2522,-86 1941.7478,-86 1941.7478,-122"/>
<text text-anchor="middle" x="1860" y="-99.8" font-family="Times,serif" font-size="14.00" fill="#000000">ParentRegisterComponent</text>
</g>
<!-- ParentModule -->
<g id="node4" class="node">
<title>ParentModule</title>
<polygon fill="#8dd3c7" stroke="#000000" points="1157.8133,-187 1154.8133,-191 1133.8133,-191 1130.8133,-187 1062.1867,-187 1062.1867,-151 1157.8133,-151 1157.8133,-187"/>
<text text-anchor="middle" x="1110" y="-164.8" font-family="Times,serif" font-size="14.00" fill="#000000">ParentModule</text>
</g>
<!-- ParentRegisterComponent&#45;&gt;ParentModule -->
<g id="edge1" class="edge">
<title>ParentRegisterComponent&#45;&gt;ParentModule</title>
<path fill="none" stroke="#000000" d="M1860,-122.0908C1860,-145.1328 1860,-182 1860,-182 1860,-182 1167.7704,-182 1167.7704,-182"/>
<polygon fill="#000000" stroke="#000000" points="1167.7705,-178.5001 1157.7704,-182 1167.7704,-185.5001 1167.7705,-178.5001"/>
</g>
<!-- ParentDashboardComponent -->
<g id="node2" class="node">
<title>ParentDashboardComponent</title>
<polygon fill="#ffffb3" stroke="#000000" points="1759.7366,-122 1582.2634,-122 1582.2634,-86 1759.7366,-86 1759.7366,-122"/>
<text text-anchor="middle" x="1671" y="-99.8" font-family="Times,serif" font-size="14.00" fill="#000000">ParentDashboardComponent</text>
</g>
<!-- ParentDashboardComponent&#45;&gt;ParentModule -->
<g id="edge2" class="edge">
<title>ParentDashboardComponent&#45;&gt;ParentModule</title>
<path fill="none" stroke="#000000" d="M1671,-122.2843C1671,-143.3211 1671,-175 1671,-175 1671,-175 1167.8305,-175 1167.8305,-175"/>
<polygon fill="#000000" stroke="#000000" points="1167.8306,-171.5001 1157.8305,-175 1167.8305,-178.5001 1167.8306,-171.5001"/>
</g>
<!-- ParentFilterPipe -->
<g id="node3" class="node">
<title>ParentFilterPipe</title>
<polygon fill="#ffffb3" stroke="#000000" points="1564.4804,-122 1457.5196,-122 1457.5196,-86 1564.4804,-86 1564.4804,-122"/>
<text text-anchor="middle" x="1511" y="-99.8" font-family="Times,serif" font-size="14.00" fill="#000000">ParentFilterPipe</text>
</g>
<!-- ParentFilterPipe&#45;&gt;ParentModule -->
<g id="edge3" class="edge">
<title>ParentFilterPipe&#45;&gt;ParentModule</title>
<path fill="none" stroke="#000000" d="M1511,-122.1061C1511,-141.3391 1511,-169 1511,-169 1511,-169 1167.9717,-169 1167.9717,-169"/>
<polygon fill="#000000" stroke="#000000" points="1167.9717,-165.5001 1157.9717,-169 1167.9716,-172.5001 1167.9717,-165.5001"/>
</g>
<!-- CommonModule -->
<g id="node5" class="node">
<title>CommonModule</title>
<polygon fill="#8dd3c7" stroke="#000000" points="1433.6681,-122 1430.6681,-126 1409.6681,-126 1406.6681,-122 1322.3319,-122 1322.3319,-86 1433.6681,-86 1433.6681,-122"/>
<text text-anchor="middle" x="1378" y="-99.8" font-family="Times,serif" font-size="14.00" fill="#000000">CommonModule</text>
</g>
<!-- CommonModule&#45;&gt;ParentModule -->
<g id="edge4" class="edge">
<title>CommonModule&#45;&gt;ParentModule</title>
<path fill="none" stroke="#000000" d="M1378,-122.0225C1378,-139.3734 1378,-163 1378,-163 1378,-163 1167.913,-163 1167.913,-163"/>
<polygon fill="#000000" stroke="#000000" points="1167.9131,-159.5001 1157.913,-163 1167.913,-166.5001 1167.9131,-159.5001"/>
</g>
<!-- SharedModule -->
<g id="node6" class="node">
<title>SharedModule</title>
<polygon fill="#8dd3c7" stroke="#000000" points="1304.4231,-122 1301.4231,-126 1280.4231,-126 1277.4231,-122 1205.5769,-122 1205.5769,-86 1304.4231,-86 1304.4231,-122"/>
<text text-anchor="middle" x="1255" y="-99.8" font-family="Times,serif" font-size="14.00" fill="#000000">SharedModule</text>
</g>
<!-- SharedModule&#45;&gt;ParentModule -->
<g id="edge5" class="edge">
<title>SharedModule&#45;&gt;ParentModule</title>
<path fill="none" stroke="#000000" d="M1255,-122.2396C1255,-137.5706 1255,-157 1255,-157 1255,-157 1167.8803,-157 1167.8803,-157"/>
<polygon fill="#000000" stroke="#000000" points="1167.8803,-153.5001 1157.8803,-157 1167.8802,-160.5001 1167.8803,-153.5001"/>
</g>
<!-- NativeScriptHttpModule -->
<g id="node7" class="node">
<title>NativeScriptHttpModule</title>
<polygon fill="#8dd3c7" stroke="#000000" points="1187.6937,-122 1184.6937,-126 1163.6937,-126 1160.6937,-122 1032.3063,-122 1032.3063,-86 1187.6937,-86 1187.6937,-122"/>
<text text-anchor="middle" x="1110" y="-99.8" font-family="Times,serif" font-size="14.00" fill="#000000">NativeScriptHttpModule</text>
</g>
<!-- NativeScriptHttpModule&#45;&gt;ParentModule -->
<g id="edge6" class="edge">
<title>NativeScriptHttpModule&#45;&gt;ParentModule</title>
<path fill="none" stroke="#000000" d="M1110,-122.1061C1110,-122.1061 1110,-140.991 1110,-140.991"/>
<polygon fill="#000000" stroke="#000000" points="1106.5001,-140.9909 1110,-150.991 1113.5001,-140.991 1106.5001,-140.9909"/>
</g>
<!-- NativeScriptModule -->
<g id="node8" class="node">
<title>NativeScriptModule</title>
<polygon fill="#8dd3c7" stroke="#000000" points="1014.3062,-122 1011.3062,-126 990.3062,-126 987.3062,-122 883.6938,-122 883.6938,-86 1014.3062,-86 1014.3062,-122"/>
<text text-anchor="middle" x="949" y="-99.8" font-family="Times,serif" font-size="14.00" fill="#000000">NativeScriptModule</text>
</g>
<!-- NativeScriptModule&#45;&gt;ParentModule -->
<g id="edge7" class="edge">
<title>NativeScriptModule&#45;&gt;ParentModule</title>
<path fill="none" stroke="#000000" d="M949,-122.2396C949,-137.5706 949,-157 949,-157 949,-157 1052.1306,-157 1052.1306,-157"/>
<polygon fill="#000000" stroke="#000000" points="1052.1306,-160.5001 1062.1306,-157 1052.1306,-153.5001 1052.1306,-160.5001"/>
</g>
<!-- NativeScriptFormsModule -->
<g id="node9" class="node">
<title>NativeScriptFormsModule</title>
<polygon fill="#8dd3c7" stroke="#000000" points="866.0842,-122 863.0842,-126 842.0842,-126 839.0842,-122 699.9158,-122 699.9158,-86 866.0842,-86 866.0842,-122"/>
<text text-anchor="middle" x="783" y="-99.8" font-family="Times,serif" font-size="14.00" fill="#000000">NativeScriptFormsModule</text>
</g>
<!-- NativeScriptFormsModule&#45;&gt;ParentModule -->
<g id="edge8" class="edge">
<title>NativeScriptFormsModule&#45;&gt;ParentModule</title>
<path fill="none" stroke="#000000" d="M783,-122.0225C783,-139.3734 783,-163 783,-163 783,-163 1052.1012,-163 1052.1012,-163"/>
<polygon fill="#000000" stroke="#000000" points="1052.1012,-166.5001 1062.1012,-163 1052.1012,-159.5001 1052.1012,-166.5001"/>
</g>
<!-- NativeScriptUIDataFormModule -->
<g id="node10" class="node">
<title>NativeScriptUIDataFormModule</title>
<polygon fill="#8dd3c7" stroke="#000000" points="681.8333,-122 678.8333,-126 657.8333,-126 654.8333,-122 480.1667,-122 480.1667,-86 681.8333,-86 681.8333,-122"/>
<text text-anchor="middle" x="581" y="-99.8" font-family="Times,serif" font-size="14.00" fill="#000000">NativeScriptUIDataFormModule</text>
</g>
<!-- NativeScriptUIDataFormModule&#45;&gt;ParentModule -->
<g id="edge9" class="edge">
<title>NativeScriptUIDataFormModule&#45;&gt;ParentModule</title>
<path fill="none" stroke="#000000" d="M581,-122.1061C581,-141.3391 581,-169 581,-169 581,-169 1052.1218,-169 1052.1218,-169"/>
<polygon fill="#000000" stroke="#000000" points="1052.1218,-172.5001 1062.1218,-169 1052.1217,-165.5001 1052.1218,-172.5001"/>
</g>
<!-- NativeScriptRouterModule -->
<g id="node11" class="node">
<title>NativeScriptRouterModule</title>
<polygon fill="#8dd3c7" stroke="#000000" points="462.4087,-122 459.4087,-126 438.4087,-126 435.4087,-122 293.5913,-122 293.5913,-86 462.4087,-86 462.4087,-122"/>
<text text-anchor="middle" x="378" y="-99.8" font-family="Times,serif" font-size="14.00" fill="#000000">NativeScriptRouterModule</text>
</g>
<!-- NativeScriptRouterModule&#45;&gt;ParentModule -->
<g id="edge10" class="edge">
<title>NativeScriptRouterModule&#45;&gt;ParentModule</title>
<path fill="none" stroke="#000000" d="M378,-122.2843C378,-143.3211 378,-175 378,-175 378,-175 1052.2538,-175 1052.2538,-175"/>
<polygon fill="#000000" stroke="#000000" points="1052.2538,-178.5001 1062.2538,-175 1052.2538,-171.5001 1052.2538,-178.5001"/>
</g>
<!-- NativeScriptRouterModule.forChild(args) -->
<g id="node12" class="node">
<title>NativeScriptRouterModule.forChild(args)</title>
<polygon fill="#8dd3c7" stroke="#000000" points="275.9882,-122 272.9882,-126 251.9882,-126 248.9882,-122 24.0118,-122 24.0118,-86 275.9882,-86 275.9882,-122"/>
<text text-anchor="middle" x="150" y="-99.8" font-family="Times,serif" font-size="14.00" fill="#000000">NativeScriptRouterModule.forChild(args)</text>
</g>
<!-- NativeScriptRouterModule.forChild(args)&#45;&gt;ParentModule -->
<g id="edge11" class="edge">
<title>NativeScriptRouterModule.forChild(args)&#45;&gt;ParentModule</title>
<path fill="none" stroke="#000000" d="M150,-122.0908C150,-145.1328 150,-182 150,-182 150,-182 1052.065,-182 1052.065,-182"/>
<polygon fill="#000000" stroke="#000000" points="1052.065,-185.5001 1062.065,-182 1052.065,-178.5001 1052.065,-185.5001"/>
</g>
</g>
</svg>
