<?xml version="1.0" encoding="UTF-8" standalone="no"?>
<!DOCTYPE svg PUBLIC "-//W3C//DTD SVG 1.1//EN"
 "http://www.w3.org/Graphics/SVG/1.1/DTD/svg11.dtd">
<!-- Generated by graphviz version 2.40.1 (20161225.0304)
 -->
<!-- Title: dependencies Pages: 1 -->
<svg width="1877pt" height="211pt"
 viewBox="0.00 0.00 1877.00 211.00" xmlns="http://www.w3.org/2000/svg" xmlns:xlink="http://www.w3.org/1999/xlink">
<g id="graph0" class="graph" transform="scale(1 1) rotate(0) translate(4 207)">
<title>dependencies</title>
<polygon fill="#ffffff" stroke="transparent" points="-4,4 -4,-207 1873,-207 1873,4 -4,4"/>
<text text-anchor="start" x="913.5091" y="-42.4" font-family="sans-serif" font-weight="bold" font-size="14.00" fill="#000000">Legend</text>
<polygon fill="#ffffb3" stroke="transparent" points="700.5,-10 700.5,-30 720.5,-30 720.5,-10 700.5,-10"/>
<text text-anchor="start" x="724.129" y="-15.4" font-family="sans-serif" font-size="14.00" fill="#000000"> &#160;Declarations</text>
<polygon fill="#8dd3c7" stroke="transparent" points="813.5,-10 813.5,-30 833.5,-30 833.5,-10 813.5,-10"/>
<text text-anchor="start" x="837.2251" y="-15.4" font-family="sans-serif" font-size="14.00" fill="#000000"> &#160;Module</text>
<polygon fill="#80b1d3" stroke="transparent" points="899.5,-10 899.5,-30 919.5,-30 919.5,-10 899.5,-10"/>
<text text-anchor="start" x="923.2812" y="-15.4" font-family="sans-serif" font-size="14.00" fill="#000000"> &#160;Bootstrap</text>
<polygon fill="#fdb462" stroke="transparent" points="996.5,-10 996.5,-30 1016.5,-30 1016.5,-10 996.5,-10"/>
<text text-anchor="start" x="1020.1732" y="-15.4" font-family="sans-serif" font-size="14.00" fill="#000000"> &#160;Providers</text>
<polygon fill="#fb8072" stroke="transparent" points="1092.5,-10 1092.5,-30 1112.5,-30 1112.5,-10 1092.5,-10"/>
<text text-anchor="start" x="1116.2258" y="-15.4" font-family="sans-serif" font-size="14.00" fill="#000000"> &#160;Exports</text>
<g id="clust1" class="cluster">
<title>cluster_AuthenticationModule</title>
<polygon fill="none" stroke="#000000" stroke-dasharray="1,5" points="8,-70 8,-195 1861,-195 1861,-70 8,-70"/>
</g>
<g id="clust2" class="cluster">
<title>cluster_AuthenticationModule_declarations</title>
<polygon fill="none" stroke="#000000" points="1333,-78 1333,-130 1853,-130 1853,-78 1333,-78"/>
</g>
<g id="clust6" class="cluster">
<title>cluster_AuthenticationModule_imports</title>
<polygon fill="none" stroke="#000000" points="16,-78 16,-130 1325,-130 1325,-78 16,-78"/>
</g>
<!-- PasswordLoginComponent -->
<g id="node1" class="node">
<title>PasswordLoginComponent</title>
<polygon fill="#ffffb3" stroke="#000000" points="1845.4297,-122 1676.5703,-122 1676.5703,-86 1845.4297,-86 1845.4297,-122"/>
<text text-anchor="middle" x="1761" y="-99.8" font-family="Times,serif" font-size="14.00" fill="#000000">PasswordLoginComponent</text>
</g>
<!-- AuthenticationModule -->
<g id="node4" class="node">
<title>AuthenticationModule</title>
<polygon fill="#8dd3c7" stroke="#000000" points="1100.2534,-187 1097.2534,-191 1076.2534,-191 1073.2534,-187 957.7466,-187 957.7466,-151 1100.2534,-151 1100.2534,-187"/>
<text text-anchor="middle" x="1029" y="-164.8" font-family="Times,serif" font-size="14.00" fill="#000000">AuthenticationModule</text>
</g>
<!-- PasswordLoginComponent&#45;&gt;AuthenticationModule -->
<g id="edge1" class="edge">
<title>PasswordLoginComponent&#45;&gt;AuthenticationModule</title>
<path fill="none" stroke="#000000" d="M1761,-122.0109C1761,-144.4852 1761,-180 1761,-180 1761,-180 1110.52,-180 1110.52,-180"/>
<polygon fill="#000000" stroke="#000000" points="1110.5201,-176.5001 1100.52,-180 1110.52,-183.5001 1110.5201,-176.5001"/>
</g>
<!-- RegisterComponent -->
<g id="node2" class="node">
<title>RegisterComponent</title>
<polygon fill="#ffffb3" stroke="#000000" points="1658.9846,-122 1531.0154,-122 1531.0154,-86 1658.9846,-86 1658.9846,-122"/>
<text text-anchor="middle" x="1595" y="-99.8" font-family="Times,serif" font-size="14.00" fill="#000000">RegisterComponent</text>
</g>
<!-- RegisterComponent&#45;&gt;AuthenticationModule -->
<g id="edge2" class="edge">
<title>RegisterComponent&#45;&gt;AuthenticationModule</title>
<path fill="none" stroke="#000000" d="M1595,-122.1289C1595,-142.5724 1595,-173 1595,-173 1595,-173 1110.3975,-173 1110.3975,-173"/>
<polygon fill="#000000" stroke="#000000" points="1110.3975,-169.5001 1100.3975,-173 1110.3975,-176.5001 1110.3975,-169.5001"/>
</g>
<!-- UsernameLoginComponent -->
<g id="node3" class="node">
<title>UsernameLoginComponent</title>
<polygon fill="#ffffb3" stroke="#000000" points="1512.5225,-122 1341.4775,-122 1341.4775,-86 1512.5225,-86 1512.5225,-122"/>
<text text-anchor="middle" x="1427" y="-99.8" font-family="Times,serif" font-size="14.00" fill="#000000">UsernameLoginComponent</text>
</g>
<!-- UsernameLoginComponent&#45;&gt;AuthenticationModule -->
<g id="edge3" class="edge">
<title>UsernameLoginComponent&#45;&gt;AuthenticationModule</title>
<path fill="none" stroke="#000000" d="M1427,-122.2667C1427,-140.5552 1427,-166 1427,-166 1427,-166 1110.6141,-166 1110.6141,-166"/>
<polygon fill="#000000" stroke="#000000" points="1110.6141,-162.5001 1100.6141,-166 1110.6141,-169.5001 1110.6141,-162.5001"/>
</g>
<!-- CommonModule -->
<g id="node5" class="node">
<title>CommonModule</title>
<polygon fill="#8dd3c7" stroke="#000000" points="1316.6681,-122 1313.6681,-126 1292.6681,-126 1289.6681,-122 1205.3319,-122 1205.3319,-86 1316.6681,-86 1316.6681,-122"/>
<text text-anchor="middle" x="1261" y="-99.8" font-family="Times,serif" font-size="14.00" fill="#000000">CommonModule</text>
</g>
<!-- CommonModule&#45;&gt;AuthenticationModule -->
<g id="edge4" class="edge">
<title>CommonModule&#45;&gt;AuthenticationModule</title>
<path fill="none" stroke="#000000" d="M1261,-122.0091C1261,-138.0494 1261,-159 1261,-159 1261,-159 1110.5007,-159 1110.5007,-159"/>
<polygon fill="#000000" stroke="#000000" points="1110.5007,-155.5001 1100.5007,-159 1110.5007,-162.5001 1110.5007,-155.5001"/>
</g>
<!-- NativeScriptHttpModule -->
<g id="node6" class="node">
<title>NativeScriptHttpModule</title>
<polygon fill="#8dd3c7" stroke="#000000" points="1187.6937,-122 1184.6937,-126 1163.6937,-126 1160.6937,-122 1032.3063,-122 1032.3063,-86 1187.6937,-86 1187.6937,-122"/>
<text text-anchor="middle" x="1110" y="-99.8" font-family="Times,serif" font-size="14.00" fill="#000000">NativeScriptHttpModule</text>
</g>
<!-- NativeScriptHttpModule&#45;&gt;AuthenticationModule -->
<g id="edge5" class="edge">
<title>NativeScriptHttpModule&#45;&gt;AuthenticationModule</title>
<path fill="none" stroke="#000000" d="M1066.3899,-122.1061C1066.3899,-122.1061 1066.3899,-140.991 1066.3899,-140.991"/>
<polygon fill="#000000" stroke="#000000" points="1062.89,-140.9909 1066.3899,-150.991 1069.89,-140.991 1062.89,-140.9909"/>
</g>
<!-- NativeScriptModule -->
<g id="node7" class="node">
<title>NativeScriptModule</title>
<polygon fill="#8dd3c7" stroke="#000000" points="1014.3062,-122 1011.3062,-126 990.3062,-126 987.3062,-122 883.6938,-122 883.6938,-86 1014.3062,-86 1014.3062,-122"/>
<text text-anchor="middle" x="949" y="-99.8" font-family="Times,serif" font-size="14.00" fill="#000000">NativeScriptModule</text>
</g>
<!-- NativeScriptModule&#45;&gt;AuthenticationModule -->
<g id="edge6" class="edge">
<title>NativeScriptModule&#45;&gt;AuthenticationModule</title>
<path fill="none" stroke="#000000" d="M985.8882,-122.1061C985.8882,-122.1061 985.8882,-140.991 985.8882,-140.991"/>
<polygon fill="#000000" stroke="#000000" points="982.3882,-140.9909 985.8882,-150.991 989.3882,-140.991 982.3882,-140.9909"/>
</g>
<!-- NativeScriptFormsModule -->
<g id="node8" class="node">
<title>NativeScriptFormsModule</title>
<polygon fill="#8dd3c7" stroke="#000000" points="866.0842,-122 863.0842,-126 842.0842,-126 839.0842,-122 699.9158,-122 699.9158,-86 866.0842,-86 866.0842,-122"/>
<text text-anchor="middle" x="783" y="-99.8" font-family="Times,serif" font-size="14.00" fill="#000000">NativeScriptFormsModule</text>
</g>
<!-- NativeScriptFormsModule&#45;&gt;AuthenticationModule -->
<g id="edge7" class="edge">
<title>NativeScriptFormsModule&#45;&gt;AuthenticationModule</title>
<path fill="none" stroke="#000000" d="M783,-122.0091C783,-138.0494 783,-159 783,-159 783,-159 947.5162,-159 947.5162,-159"/>
<polygon fill="#000000" stroke="#000000" points="947.5162,-162.5001 957.5162,-159 947.5161,-155.5001 947.5162,-162.5001"/>
</g>
<!-- NativeScriptUIDataFormModule -->
<g id="node9" class="node">
<title>NativeScriptUIDataFormModule</title>
<polygon fill="#8dd3c7" stroke="#000000" points="681.8333,-122 678.8333,-126 657.8333,-126 654.8333,-122 480.1667,-122 480.1667,-86 681.8333,-86 681.8333,-122"/>
<text text-anchor="middle" x="581" y="-99.8" font-family="Times,serif" font-size="14.00" fill="#000000">NativeScriptUIDataFormModule</text>
</g>
<!-- NativeScriptUIDataFormModule&#45;&gt;AuthenticationModule -->
<g id="edge8" class="edge">
<title>NativeScriptUIDataFormModule&#45;&gt;AuthenticationModule</title>
<path fill="none" stroke="#000000" d="M581,-122.2667C581,-140.5552 581,-166 581,-166 581,-166 947.5177,-166 947.5177,-166"/>
<polygon fill="#000000" stroke="#000000" points="947.5177,-169.5001 957.5177,-166 947.5177,-162.5001 947.5177,-169.5001"/>
</g>
<!-- NativeScriptRouterModule -->
<g id="node10" class="node">
<title>NativeScriptRouterModule</title>
<polygon fill="#8dd3c7" stroke="#000000" points="462.4087,-122 459.4087,-126 438.4087,-126 435.4087,-122 293.5913,-122 293.5913,-86 462.4087,-86 462.4087,-122"/>
<text text-anchor="middle" x="378" y="-99.8" font-family="Times,serif" font-size="14.00" fill="#000000">NativeScriptRouterModule</text>
</g>
<!-- NativeScriptRouterModule&#45;&gt;AuthenticationModule -->
<g id="edge9" class="edge">
<title>NativeScriptRouterModule&#45;&gt;AuthenticationModule</title>
<path fill="none" stroke="#000000" d="M378,-122.1289C378,-142.5724 378,-173 378,-173 378,-173 947.4694,-173 947.4694,-173"/>
<polygon fill="#000000" stroke="#000000" points="947.4694,-176.5001 957.4694,-173 947.4694,-169.5001 947.4694,-176.5001"/>
</g>
<!-- NativeScriptRouterModule.forChild(args) -->
<g id="node11" class="node">
<title>NativeScriptRouterModule.forChild(args)</title>
<polygon fill="#8dd3c7" stroke="#000000" points="275.9882,-122 272.9882,-126 251.9882,-126 248.9882,-122 24.0118,-122 24.0118,-86 275.9882,-86 275.9882,-122"/>
<text text-anchor="middle" x="150" y="-99.8" font-family="Times,serif" font-size="14.00" fill="#000000">NativeScriptRouterModule.forChild(args)</text>
</g>
<!-- NativeScriptRouterModule.forChild(args)&#45;&gt;AuthenticationModule -->
<g id="edge10" class="edge">
<title>NativeScriptRouterModule.forChild(args)&#45;&gt;AuthenticationModule</title>
<path fill="none" stroke="#000000" d="M150,-122.0109C150,-144.4852 150,-180 150,-180 150,-180 947.4404,-180 947.4404,-180"/>
<polygon fill="#000000" stroke="#000000" points="947.4405,-183.5001 957.4404,-180 947.4404,-176.5001 947.4405,-183.5001"/>
</g>
</g>
</svg>
